<?xml version="1.0"?>
<!-- Created by MetaPost 2.00 on 2018.10.29:2232 -->
<svg version="1.1" xmlns="http://www.w3.org/2000/svg" xmlns:xlink="http://www.w3.org/1999/xlink" width="560.916351" height="472.134705" viewBox="0 0 560.916351 472.134705">
<!-- Original BoundingBox: -70.666351 -414.682159 490.250000 57.452545 -->
  <defs>
    <g transform="scale(0.009963,0.009963)" id="GLYPHcmr10_46">
      <path style="fill-rule: evenodd;" d="M192.000000 -53.000000C192.000000 -82.000000,168.000000 -106.000000,139.000000 -106.000000C110.000000 -106.000000,86.000000 -82.000000,86.000000 -53.000000C86.000000 -24.000000,110.000000 -0.000000,139.000000 -0.000000C168.000000 -0.000000,192.000000 -24.000000,192.000000 -53.000000"></path>
    </g>
    <g transform="scale(0.009963,0.009963)" id="GLYPHcmr10_49">
      <path style="fill-rule: evenodd;" d="M294.000000 -640.000000C294.000000 -664.000000,294.000000 -666.000000,271.000000 -666.000000C209.000000 -602.000000,121.000000 -602.000000,89.000000 -602.000000L89.000000 -571.000000C109.000000 -571.000000,168.000000 -571.000000,220.000000 -597.000000L220.000000 -79.000000C220.000000 -43.000000,217.000000 -31.000000,127.000000 -31.000000L95.000000 -31.000000L95.000000 -0.000000C130.000000 -3.000000,217.000000 -3.000000,257.000000 -3.000000C297.000000 -3.000000,384.000000 -3.000000,419.000000 -0.000000L419.000000 -31.000000L387.000000 -31.000000C297.000000 -31.000000,294.000000 -42.000000,294.000000 -79.000000"></path>
    </g>
    <g transform="scale(0.009963,0.009963)" id="GLYPHcmr10_66">
      <path style="fill-rule: evenodd;" d="M222.000000 -366.000000L222.000000 -612.000000C222.000000 -645.000000,224.000000 -652.000000,271.000000 -652.000000L395.000000 -652.000000C492.000000 -652.000000,527.000000 -567.000000,527.000000 -514.000000C527.000000 -450.000000,478.000000 -366.000000,367.000000 -366.000000M458.000000 -357.000000C555.000000 -376.000000,624.000000 -440.000000,624.000000 -514.000000C624.000000 -601.000000,532.000000 -683.000000,402.000000 -683.000000L36.000000 -683.000000L36.000000 -652.000000L60.000000 -652.000000C137.000000 -652.000000,139.000000 -641.000000,139.000000 -605.000000L139.000000 -78.000000C139.000000 -42.000000,137.000000 -31.000000,60.000000 -31.000000L36.000000 -31.000000L36.000000 -0.000000L428.000000 -0.000000C561.000000 -0.000000,651.000000 -89.000000,651.000000 -183.000000C651.000000 -270.000000,569.000000 -345.000000,458.000000 -357.000000M396.000000 -31.000000L271.000000 -31.000000C224.000000 -31.000000,222.000000 -38.000000,222.000000 -71.000000L222.000000 -344.000000L410.000000 -344.000000C509.000000 -344.000000,551.000000 -251.000000,551.000000 -184.000000C551.000000 -113.000000,499.000000 -31.000000,396.000000 -31.000000"></path>
    </g>
    <g transform="scale(0.009963,0.009963)" id="GLYPHcmr10_67">
      <path style="fill-rule: evenodd;" d="M56.000000 -342.000000C56.000000 -135.000000,218.000000 22.000000,404.000000 22.000000C567.000000 22.000000,665.000000 -117.000000,665.000000 -233.000000C665.000000 -243.000000,665.000000 -250.000000,652.000000 -250.000000C641.000000 -250.000000,641.000000 -244.000000,640.000000 -234.000000C632.000000 -91.000000,525.000000 -9.000000,416.000000 -9.000000C355.000000 -9.000000,159.000000 -43.000000,159.000000 -341.000000C159.000000 -640.000000,354.000000 -674.000000,415.000000 -674.000000C524.000000 -674.000000,613.000000 -583.000000,633.000000 -437.000000C635.000000 -423.000000,635.000000 -420.000000,649.000000 -420.000000C665.000000 -420.000000,665.000000 -423.000000,665.000000 -444.000000L665.000000 -681.000000C665.000000 -698.000000,665.000000 -705.000000,654.000000 -705.000000C650.000000 -705.000000,646.000000 -705.000000,638.000000 -693.000000L588.000000 -619.000000C551.000000 -655.000000,500.000000 -705.000000,404.000000 -705.000000C217.000000 -705.000000,56.000000 -546.000000,56.000000 -342.000000"></path>
    </g>
    <g transform="scale(0.009963,0.009963)" id="GLYPHcmr10_68">
      <path style="fill-rule: evenodd;" d="M35.000000 -683.000000L35.000000 -652.000000L59.000000 -652.000000C136.000000 -652.000000,138.000000 -641.000000,138.000000 -605.000000L138.000000 -78.000000C138.000000 -42.000000,136.000000 -31.000000,59.000000 -31.000000L35.000000 -31.000000L35.000000 -0.000000L401.000000 -0.000000C569.000000 -0.000000,707.000000 -148.000000,707.000000 -336.000000C707.000000 -526.000000,572.000000 -683.000000,401.000000 -683.000000M273.000000 -31.000000C226.000000 -31.000000,224.000000 -38.000000,224.000000 -71.000000L224.000000 -612.000000C224.000000 -645.000000,226.000000 -652.000000,273.000000 -652.000000L373.000000 -652.000000C435.000000 -652.000000,504.000000 -630.000000,555.000000 -559.000000C598.000000 -500.000000,607.000000 -414.000000,607.000000 -336.000000C607.000000 -225.000000,588.000000 -165.000000,552.000000 -116.000000C532.000000 -89.000000,475.000000 -31.000000,374.000000 -31.000000"></path>
    </g>
    <g transform="scale(0.009963,0.009963)" id="GLYPHcmr10_70">
      <path style="fill-rule: evenodd;" d="M582.000000 -680.000000L33.000000 -680.000000L33.000000 -649.000000L57.000000 -649.000000C134.000000 -649.000000,136.000000 -638.000000,136.000000 -602.000000L136.000000 -78.000000C136.000000 -42.000000,134.000000 -31.000000,57.000000 -31.000000L33.000000 -31.000000L33.000000 -0.000000C68.000000 -3.000000,146.000000 -3.000000,185.000000 -3.000000C226.000000 -3.000000,317.000000 -3.000000,353.000000 -0.000000L353.000000 -31.000000L320.000000 -31.000000C225.000000 -31.000000,225.000000 -44.000000,225.000000 -79.000000L225.000000 -325.000000L311.000000 -325.000000C407.000000 -325.000000,417.000000 -293.000000,417.000000 -208.000000L442.000000 -208.000000L442.000000 -473.000000L417.000000 -473.000000C417.000000 -389.000000,407.000000 -356.000000,311.000000 -356.000000L225.000000 -356.000000L225.000000 -609.000000C225.000000 -642.000000,227.000000 -649.000000,274.000000 -649.000000L394.000000 -649.000000C544.000000 -649.000000,569.000000 -593.000000,585.000000 -455.000000L610.000000 -455.000000"></path>
    </g>
    <g transform="scale(0.009963,0.009963)" id="GLYPHcmr10_76">
      <path style="fill-rule: evenodd;" d="M582.000000 -258.000000L557.000000 -258.000000C546.000000 -156.000000,532.000000 -31.000000,356.000000 -31.000000L274.000000 -31.000000C227.000000 -31.000000,225.000000 -38.000000,225.000000 -71.000000L225.000000 -604.000000C225.000000 -638.000000,225.000000 -652.000000,320.000000 -652.000000L353.000000 -652.000000L353.000000 -683.000000C317.000000 -680.000000,226.000000 -680.000000,185.000000 -680.000000C146.000000 -680.000000,68.000000 -680.000000,33.000000 -683.000000L33.000000 -652.000000L57.000000 -652.000000C134.000000 -652.000000,136.000000 -641.000000,136.000000 -605.000000L136.000000 -78.000000C136.000000 -42.000000,134.000000 -31.000000,57.000000 -31.000000L33.000000 -31.000000L33.000000 -0.000000L554.000000 -0.000000"></path>
    </g>
    <g transform="scale(0.009963,0.009963)" id="GLYPHcmr10_77">
      <path style="fill-rule: evenodd;" d="M241.000000 -661.000000C232.000000 -683.000000,229.000000 -683.000000,206.000000 -683.000000L37.000000 -683.000000L37.000000 -652.000000L61.000000 -652.000000C138.000000 -652.000000,140.000000 -641.000000,140.000000 -605.000000L140.000000 -105.000000C140.000000 -78.000000,140.000000 -31.000000,37.000000 -31.000000L37.000000 -0.000000C72.000000 -1.000000,121.000000 -3.000000,154.000000 -3.000000C187.000000 -3.000000,236.000000 -1.000000,271.000000 -0.000000L271.000000 -31.000000C168.000000 -31.000000,168.000000 -78.000000,168.000000 -105.000000L168.000000 -644.000000L169.000000 -644.000000L410.000000 -22.000000C415.000000 -9.000000,420.000000 -0.000000,430.000000 -0.000000C441.000000 -0.000000,444.000000 -8.000000,448.000000 -19.000000L694.000000 -652.000000L695.000000 -652.000000L695.000000 -78.000000C695.000000 -42.000000,693.000000 -31.000000,616.000000 -31.000000L592.000000 -31.000000L592.000000 -0.000000C629.000000 -3.000000,697.000000 -3.000000,736.000000 -3.000000C775.000000 -3.000000,842.000000 -3.000000,879.000000 -0.000000L879.000000 -31.000000L855.000000 -31.000000C778.000000 -31.000000,776.000000 -42.000000,776.000000 -78.000000L776.000000 -605.000000C776.000000 -641.000000,778.000000 -652.000000,855.000000 -652.000000L879.000000 -652.000000L879.000000 -683.000000L710.000000 -683.000000C684.000000 -683.000000,684.000000 -682.000000,677.000000 -664.000000L458.000000 -101.000000"></path>
    </g>
    <g transform="scale(0.009963,0.009963)" id="GLYPHcmr10_78">
      <path style="fill-rule: evenodd;" d="M232.000000 -670.000000C223.000000 -682.000000,222.000000 -683.000000,203.000000 -683.000000L33.000000 -683.000000L33.000000 -652.000000L62.000000 -652.000000C77.000000 -652.000000,97.000000 -651.000000,112.000000 -650.000000C135.000000 -647.000000,136.000000 -646.000000,136.000000 -627.000000L136.000000 -105.000000C136.000000 -78.000000,136.000000 -31.000000,33.000000 -31.000000L33.000000 -0.000000C68.000000 -1.000000,117.000000 -3.000000,150.000000 -3.000000C183.000000 -3.000000,232.000000 -1.000000,267.000000 -0.000000L267.000000 -31.000000C164.000000 -31.000000,164.000000 -78.000000,164.000000 -105.000000L164.000000 -625.000000C169.000000 -620.000000,170.000000 -619.000000,174.000000 -613.000000L582.000000 -13.000000C591.000000 -1.000000,592.000000 -0.000000,599.000000 -0.000000C613.000000 -0.000000,613.000000 -7.000000,613.000000 -26.000000L613.000000 -578.000000C613.000000 -605.000000,613.000000 -652.000000,716.000000 -652.000000L716.000000 -683.000000C681.000000 -682.000000,632.000000 -680.000000,599.000000 -680.000000C566.000000 -680.000000,517.000000 -682.000000,482.000000 -683.000000L482.000000 -652.000000C585.000000 -652.000000,585.000000 -605.000000,585.000000 -578.000000L585.000000 -151.000000"></path>
    </g>
    <g transform="scale(0.009963,0.009963)" id="GLYPHcmr10_83">
      <path style="fill-rule: evenodd;" d="M349.000000 -388.000000L221.000000 -419.000000C159.000000 -434.000000,120.000000 -488.000000,120.000000 -546.000000C120.000000 -616.000000,174.000000 -677.000000,252.000000 -677.000000C419.000000 -677.000000,441.000000 -513.000000,447.000000 -468.000000C448.000000 -462.000000,448.000000 -456.000000,459.000000 -456.000000C472.000000 -456.000000,472.000000 -461.000000,472.000000 -480.000000L472.000000 -681.000000C472.000000 -698.000000,472.000000 -705.000000,461.000000 -705.000000C454.000000 -705.000000,453.000000 -704.000000,446.000000 -692.000000L411.000000 -635.000000C381.000000 -664.000000,340.000000 -705.000000,251.000000 -705.000000C140.000000 -705.000000,56.000000 -617.000000,56.000000 -511.000000C56.000000 -428.000000,109.000000 -355.000000,187.000000 -328.000000C198.000000 -324.000000,249.000000 -312.000000,319.000000 -295.000000C346.000000 -288.000000,376.000000 -281.000000,404.000000 -244.000000C425.000000 -218.000000,435.000000 -185.000000,435.000000 -152.000000C435.000000 -81.000000,385.000000 -9.000000,301.000000 -9.000000C272.000000 -9.000000,196.000000 -14.000000,143.000000 -63.000000C85.000000 -117.000000,82.000000 -181.000000,81.000000 -217.000000C80.000000 -227.000000,72.000000 -227.000000,69.000000 -227.000000C56.000000 -227.000000,56.000000 -220.000000,56.000000 -202.000000L56.000000 -2.000000C56.000000 15.000000,56.000000 22.000000,67.000000 22.000000C74.000000 22.000000,75.000000 20.000000,82.000000 9.000000C82.000000 8.000000,85.000000 5.000000,118.000000 -48.000000C149.000000 -14.000000,213.000000 22.000000,302.000000 22.000000C419.000000 22.000000,499.000000 -76.000000,499.000000 -186.000000C499.000000 -286.000000,433.000000 -368.000000,349.000000 -388.000000"></path>
    </g>
    <g transform="scale(0.009963,0.009963)" id="GLYPHcmr10_88">
      <path style="fill-rule: evenodd;" d="M402.000000 -386.000000L539.000000 -587.000000C561.000000 -619.000000,595.000000 -651.000000,684.000000 -652.000000L684.000000 -683.000000C645.000000 -682.000000,598.000000 -680.000000,573.000000 -680.000000C533.000000 -680.000000,485.000000 -680.000000,445.000000 -683.000000L445.000000 -652.000000C485.000000 -651.000000,507.000000 -629.000000,507.000000 -606.000000C507.000000 -596.000000,505.000000 -594.000000,498.000000 -583.000000L384.000000 -414.000000L255.000000 -607.000000C253.000000 -610.000000,248.000000 -618.000000,248.000000 -622.000000C248.000000 -634.000000,270.000000 -651.000000,313.000000 -652.000000L313.000000 -683.000000C278.000000 -680.000000,205.000000 -680.000000,167.000000 -680.000000C136.000000 -680.000000,74.000000 -681.000000,37.000000 -683.000000L37.000000 -652.000000L56.000000 -652.000000C111.000000 -652.000000,130.000000 -645.000000,149.000000 -617.000000L333.000000 -339.000000L169.000000 -97.000000C155.000000 -77.000000,125.000000 -31.000000,24.000000 -31.000000L24.000000 -0.000000C60.000000 -1.000000,102.000000 -3.000000,135.000000 -3.000000C172.000000 -3.000000,227.000000 -3.000000,263.000000 -0.000000L263.000000 -31.000000C217.000000 -32.000000,200.000000 -59.000000,200.000000 -77.000000C200.000000 -86.000000,203.000000 -90.000000,210.000000 -101.000000L352.000000 -311.000000L510.000000 -72.000000C512.000000 -68.000000,515.000000 -64.000000,515.000000 -61.000000C515.000000 -49.000000,493.000000 -32.000000,450.000000 -31.000000L450.000000 -0.000000C485.000000 -3.000000,558.000000 -3.000000,596.000000 -3.000000C638.000000 -3.000000,684.000000 -2.000000,726.000000 -0.000000L726.000000 -31.000000L707.000000 -31.000000C655.000000 -31.000000,634.000000 -36.000000,613.000000 -67.000000"></path>
    </g>
    <g transform="scale(0.009963,0.009963)" id="GLYPHcmr10_97">
      <path style="fill-rule: evenodd;" d="M333.000000 -76.000000C337.000000 -36.000000,364.000000 6.000000,411.000000 6.000000C432.000000 6.000000,493.000000 -8.000000,493.000000 -89.000000L493.000000 -145.000000L468.000000 -145.000000L468.000000 -89.000000C468.000000 -31.000000,443.000000 -25.000000,432.000000 -25.000000C399.000000 -25.000000,395.000000 -70.000000,395.000000 -75.000000L395.000000 -275.000000C395.000000 -317.000000,395.000000 -356.000000,359.000000 -393.000000C320.000000 -432.000000,270.000000 -448.000000,222.000000 -448.000000C140.000000 -448.000000,71.000000 -401.000000,71.000000 -335.000000C71.000000 -305.000000,91.000000 -288.000000,117.000000 -288.000000C145.000000 -288.000000,163.000000 -308.000000,163.000000 -334.000000C163.000000 -346.000000,158.000000 -379.000000,112.000000 -380.000000C139.000000 -415.000000,188.000000 -426.000000,220.000000 -426.000000C269.000000 -426.000000,326.000000 -387.000000,326.000000 -298.000000L326.000000 -261.000000C275.000000 -258.000000,205.000000 -255.000000,142.000000 -225.000000C67.000000 -191.000000,42.000000 -139.000000,42.000000 -95.000000C42.000000 -14.000000,139.000000 11.000000,202.000000 11.000000C268.000000 11.000000,314.000000 -29.000000,333.000000 -76.000000M326.000000 -240.000000L326.000000 -140.000000C326.000000 -45.000000,254.000000 -11.000000,209.000000 -11.000000C160.000000 -11.000000,119.000000 -46.000000,119.000000 -96.000000C119.000000 -151.000000,161.000000 -234.000000,326.000000 -240.000000"></path>
    </g>
    <g transform="scale(0.009963,0.009963)" id="GLYPHcmr10_99">
      <path style="fill-rule: evenodd;" d="M117.000000 -218.000000C117.000000 -381.000000,199.000000 -423.000000,252.000000 -423.000000C261.000000 -423.000000,324.000000 -422.000000,359.000000 -386.000000C318.000000 -383.000000,312.000000 -353.000000,312.000000 -340.000000C312.000000 -314.000000,330.000000 -294.000000,358.000000 -294.000000C384.000000 -294.000000,404.000000 -311.000000,404.000000 -341.000000C404.000000 -409.000000,328.000000 -448.000000,251.000000 -448.000000C126.000000 -448.000000,34.000000 -340.000000,34.000000 -216.000000C34.000000 -88.000000,133.000000 11.000000,249.000000 11.000000C383.000000 11.000000,415.000000 -109.000000,415.000000 -119.000000C415.000000 -129.000000,405.000000 -129.000000,402.000000 -129.000000C393.000000 -129.000000,391.000000 -125.000000,389.000000 -119.000000C360.000000 -26.000000,295.000000 -14.000000,258.000000 -14.000000C205.000000 -14.000000,117.000000 -57.000000,117.000000 -218.000000"></path>
    </g>
    <g transform="scale(0.009963,0.009963)" id="GLYPHcmr10_100">
      <path style="fill-rule: evenodd;" d="M380.000000 -55.000000L380.000000 11.000000L527.000000 -0.000000L527.000000 -31.000000C457.000000 -31.000000,449.000000 -38.000000,449.000000 -87.000000L449.000000 -694.000000L305.000000 -683.000000L305.000000 -652.000000C375.000000 -652.000000,383.000000 -645.000000,383.000000 -596.000000L383.000000 -380.000000C354.000000 -416.000000,311.000000 -442.000000,257.000000 -442.000000C139.000000 -442.000000,34.000000 -344.000000,34.000000 -215.000000C34.000000 -88.000000,132.000000 11.000000,246.000000 11.000000C310.000000 11.000000,355.000000 -23.000000,380.000000 -55.000000M380.000000 -323.000000L380.000000 -118.000000C380.000000 -100.000000,380.000000 -98.000000,369.000000 -81.000000C339.000000 -33.000000,294.000000 -11.000000,251.000000 -11.000000C206.000000 -11.000000,170.000000 -37.000000,146.000000 -75.000000C120.000000 -116.000000,117.000000 -173.000000,117.000000 -214.000000C117.000000 -251.000000,119.000000 -311.000000,148.000000 -356.000000C169.000000 -387.000000,207.000000 -420.000000,261.000000 -420.000000C296.000000 -420.000000,338.000000 -405.000000,369.000000 -360.000000C380.000000 -343.000000,380.000000 -341.000000,380.000000 -323.000000"></path>
    </g>
    <g transform="scale(0.009963,0.009963)" id="GLYPHcmr10_101">
      <path style="fill-rule: evenodd;" d="M112.000000 -252.000000C118.000000 -401.000000,202.000000 -426.000000,236.000000 -426.000000C339.000000 -426.000000,349.000000 -291.000000,349.000000 -252.000000M111.000000 -231.000000L390.000000 -231.000000C412.000000 -231.000000,415.000000 -231.000000,415.000000 -252.000000C415.000000 -351.000000,361.000000 -448.000000,236.000000 -448.000000C120.000000 -448.000000,28.000000 -345.000000,28.000000 -220.000000C28.000000 -86.000000,133.000000 11.000000,248.000000 11.000000C370.000000 11.000000,415.000000 -100.000000,415.000000 -119.000000C415.000000 -129.000000,407.000000 -131.000000,402.000000 -131.000000C393.000000 -131.000000,391.000000 -125.000000,389.000000 -117.000000C354.000000 -14.000000,264.000000 -14.000000,254.000000 -14.000000C204.000000 -14.000000,164.000000 -44.000000,141.000000 -81.000000C111.000000 -129.000000,111.000000 -195.000000,111.000000 -231.000000"></path>
    </g>
    <g transform="scale(0.009963,0.009963)" id="GLYPHcmr10_105">
      <path style="fill-rule: evenodd;" d="M177.000000 -442.000000L37.000000 -431.000000L37.000000 -400.000000C102.000000 -400.000000,111.000000 -394.000000,111.000000 -345.000000L111.000000 -76.000000C111.000000 -31.000000,100.000000 -31.000000,33.000000 -31.000000L33.000000 -0.000000C65.000000 -1.000000,119.000000 -3.000000,143.000000 -3.000000C178.000000 -3.000000,213.000000 -1.000000,247.000000 -0.000000L247.000000 -31.000000C181.000000 -31.000000,177.000000 -36.000000,177.000000 -75.000000M181.000000 -616.000000C181.000000 -648.000000,156.000000 -669.000000,128.000000 -669.000000C97.000000 -669.000000,75.000000 -642.000000,75.000000 -616.000000C75.000000 -589.000000,97.000000 -563.000000,128.000000 -563.000000C156.000000 -563.000000,181.000000 -584.000000,181.000000 -616.000000"></path>
    </g>
    <g transform="scale(0.009963,0.009963)" id="GLYPHcmr10_107">
      <path style="fill-rule: evenodd;" d="M106.000000 -76.000000C106.000000 -31.000000,95.000000 -31.000000,28.000000 -31.000000L28.000000 -0.000000C61.000000 -1.000000,108.000000 -3.000000,137.000000 -3.000000C167.000000 -3.000000,207.000000 -2.000000,247.000000 -0.000000L247.000000 -31.000000C180.000000 -31.000000,169.000000 -31.000000,169.000000 -76.000000L169.000000 -179.000000L233.000000 -234.000000C310.000000 -128.000000,352.000000 -72.000000,352.000000 -54.000000C352.000000 -35.000000,335.000000 -31.000000,316.000000 -31.000000L316.000000 -0.000000C344.000000 -1.000000,403.000000 -3.000000,424.000000 -3.000000C453.000000 -3.000000,482.000000 -2.000000,511.000000 -0.000000L511.000000 -31.000000C474.000000 -31.000000,452.000000 -31.000000,414.000000 -84.000000L287.000000 -263.000000C286.000000 -265.000000,281.000000 -271.000000,281.000000 -274.000000C281.000000 -278.000000,352.000000 -338.000000,362.000000 -346.000000C425.000000 -397.000000,467.000000 -399.000000,488.000000 -400.000000L488.000000 -431.000000C459.000000 -428.000000,446.000000 -428.000000,418.000000 -428.000000C382.000000 -428.000000,320.000000 -430.000000,306.000000 -431.000000L306.000000 -400.000000C325.000000 -399.000000,335.000000 -388.000000,335.000000 -375.000000C335.000000 -355.000000,321.000000 -343.000000,313.000000 -336.000000L172.000000 -214.000000L172.000000 -694.000000L28.000000 -683.000000L28.000000 -652.000000C98.000000 -652.000000,106.000000 -645.000000,106.000000 -596.000000"></path>
    </g>
    <g transform="scale(0.009963,0.009963)" id="GLYPHcmr10_108">
      <path style="fill-rule: evenodd;" d="M177.000000 -694.000000L33.000000 -683.000000L33.000000 -652.000000C103.000000 -652.000000,111.000000 -645.000000,111.000000 -596.000000L111.000000 -76.000000C111.000000 -31.000000,100.000000 -31.000000,33.000000 -31.000000L33.000000 -0.000000C66.000000 -1.000000,119.000000 -3.000000,144.000000 -3.000000C169.000000 -3.000000,218.000000 -1.000000,255.000000 -0.000000L255.000000 -31.000000C188.000000 -31.000000,177.000000 -31.000000,177.000000 -76.000000"></path>
    </g>
    <g transform="scale(0.009963,0.009963)" id="GLYPHcmr10_109">
      <path style="fill-rule: evenodd;" d="M110.000000 -344.000000L110.000000 -76.000000C110.000000 -31.000000,99.000000 -31.000000,32.000000 -31.000000L32.000000 -0.000000C67.000000 -1.000000,118.000000 -3.000000,145.000000 -3.000000C171.000000 -3.000000,223.000000 -1.000000,257.000000 -0.000000L257.000000 -31.000000C190.000000 -31.000000,179.000000 -31.000000,179.000000 -76.000000L179.000000 -260.000000C179.000000 -364.000000,250.000000 -420.000000,314.000000 -420.000000C377.000000 -420.000000,388.000000 -366.000000,388.000000 -309.000000L388.000000 -76.000000C388.000000 -31.000000,377.000000 -31.000000,310.000000 -31.000000L310.000000 -0.000000C345.000000 -1.000000,396.000000 -3.000000,423.000000 -3.000000C449.000000 -3.000000,501.000000 -1.000000,535.000000 -0.000000L535.000000 -31.000000C468.000000 -31.000000,457.000000 -31.000000,457.000000 -76.000000L457.000000 -260.000000C457.000000 -364.000000,528.000000 -420.000000,592.000000 -420.000000C655.000000 -420.000000,666.000000 -366.000000,666.000000 -309.000000L666.000000 -76.000000C666.000000 -31.000000,655.000000 -31.000000,588.000000 -31.000000L588.000000 -0.000000C623.000000 -1.000000,674.000000 -3.000000,701.000000 -3.000000C727.000000 -3.000000,779.000000 -1.000000,813.000000 -0.000000L813.000000 -31.000000C761.000000 -31.000000,736.000000 -31.000000,735.000000 -61.000000L735.000000 -252.000000C735.000000 -338.000000,735.000000 -369.000000,704.000000 -405.000000C690.000000 -422.000000,657.000000 -442.000000,599.000000 -442.000000C515.000000 -442.000000,471.000000 -382.000000,454.000000 -344.000000C440.000000 -431.000000,366.000000 -442.000000,321.000000 -442.000000C248.000000 -442.000000,201.000000 -399.000000,173.000000 -337.000000L173.000000 -442.000000L32.000000 -431.000000L32.000000 -400.000000C102.000000 -400.000000,110.000000 -393.000000,110.000000 -344.000000"></path>
    </g>
    <g transform="scale(0.009963,0.009963)" id="GLYPHcmr10_110">
      <path style="fill-rule: evenodd;" d="M110.000000 -344.000000L110.000000 -76.000000C110.000000 -31.000000,99.000000 -31.000000,32.000000 -31.000000L32.000000 -0.000000C67.000000 -1.000000,118.000000 -3.000000,145.000000 -3.000000C171.000000 -3.000000,223.000000 -1.000000,257.000000 -0.000000L257.000000 -31.000000C190.000000 -31.000000,179.000000 -31.000000,179.000000 -76.000000L179.000000 -260.000000C179.000000 -364.000000,250.000000 -420.000000,314.000000 -420.000000C377.000000 -420.000000,388.000000 -366.000000,388.000000 -309.000000L388.000000 -76.000000C388.000000 -31.000000,377.000000 -31.000000,310.000000 -31.000000L310.000000 -0.000000C345.000000 -1.000000,396.000000 -3.000000,423.000000 -3.000000C449.000000 -3.000000,501.000000 -1.000000,535.000000 -0.000000L535.000000 -31.000000C483.000000 -31.000000,458.000000 -31.000000,457.000000 -61.000000L457.000000 -252.000000C457.000000 -338.000000,457.000000 -369.000000,426.000000 -405.000000C412.000000 -422.000000,379.000000 -442.000000,321.000000 -442.000000C248.000000 -442.000000,201.000000 -399.000000,173.000000 -337.000000L173.000000 -442.000000L32.000000 -431.000000L32.000000 -400.000000C102.000000 -400.000000,110.000000 -393.000000,110.000000 -344.000000"></path>
    </g>
    <g transform="scale(0.009963,0.009963)" id="GLYPHcmr10_111">
      <path style="fill-rule: evenodd;" d="M471.000000 -214.000000C471.000000 -342.000000,371.000000 -448.000000,250.000000 -448.000000C125.000000 -448.000000,28.000000 -339.000000,28.000000 -214.000000C28.000000 -85.000000,132.000000 11.000000,249.000000 11.000000C370.000000 11.000000,471.000000 -87.000000,471.000000 -214.000000M250.000000 -14.000000C207.000000 -14.000000,163.000000 -35.000000,136.000000 -81.000000C111.000000 -125.000000,111.000000 -186.000000,111.000000 -222.000000C111.000000 -261.000000,111.000000 -315.000000,135.000000 -359.000000C162.000000 -405.000000,209.000000 -426.000000,249.000000 -426.000000C293.000000 -426.000000,336.000000 -404.000000,362.000000 -361.000000C388.000000 -318.000000,388.000000 -260.000000,388.000000 -222.000000C388.000000 -186.000000,388.000000 -132.000000,366.000000 -88.000000C344.000000 -43.000000,300.000000 -14.000000,250.000000 -14.000000"></path>
    </g>
    <g transform="scale(0.009963,0.009963)" id="GLYPHcmr10_112">
      <path style="fill-rule: evenodd;" d="M172.000000 -376.000000L172.000000 -442.000000L28.000000 -431.000000L28.000000 -400.000000C99.000000 -400.000000,106.000000 -394.000000,106.000000 -350.000000L106.000000 118.000000C106.000000 163.000000,95.000000 163.000000,28.000000 163.000000L28.000000 194.000000C62.000000 193.000000,114.000000 191.000000,140.000000 191.000000C167.000000 191.000000,218.000000 193.000000,253.000000 194.000000L253.000000 163.000000C186.000000 163.000000,175.000000 163.000000,175.000000 118.000000L175.000000 -50.000000L175.000000 -59.000000C180.000000 -43.000000,222.000000 11.000000,298.000000 11.000000C417.000000 11.000000,521.000000 -87.000000,521.000000 -216.000000C521.000000 -343.000000,424.000000 -442.000000,312.000000 -442.000000C234.000000 -442.000000,192.000000 -398.000000,172.000000 -376.000000M175.000000 -114.000000L175.000000 -337.000000C204.000000 -388.000000,253.000000 -417.000000,304.000000 -417.000000C377.000000 -417.000000,438.000000 -329.000000,438.000000 -216.000000C438.000000 -95.000000,368.000000 -11.000000,294.000000 -11.000000C254.000000 -11.000000,216.000000 -31.000000,189.000000 -72.000000C175.000000 -93.000000,175.000000 -94.000000,175.000000 -114.000000"></path>
    </g>
    <g transform="scale(0.009963,0.009963)" id="GLYPHcmr10_114">
      <path style="fill-rule: evenodd;" d="M167.000000 -332.000000L167.000000 -442.000000L28.000000 -431.000000L28.000000 -400.000000C98.000000 -400.000000,106.000000 -393.000000,106.000000 -344.000000L106.000000 -76.000000C106.000000 -31.000000,95.000000 -31.000000,28.000000 -31.000000L28.000000 -0.000000C67.000000 -1.000000,114.000000 -3.000000,142.000000 -3.000000C182.000000 -3.000000,229.000000 -3.000000,269.000000 -0.000000L269.000000 -31.000000L248.000000 -31.000000C174.000000 -31.000000,172.000000 -42.000000,172.000000 -78.000000L172.000000 -232.000000C172.000000 -331.000000,214.000000 -420.000000,290.000000 -420.000000C297.000000 -420.000000,299.000000 -420.000000,301.000000 -419.000000C298.000000 -418.000000,278.000000 -406.000000,278.000000 -380.000000C278.000000 -352.000000,299.000000 -337.000000,321.000000 -337.000000C339.000000 -337.000000,364.000000 -349.000000,364.000000 -381.000000C364.000000 -413.000000,333.000000 -442.000000,290.000000 -442.000000C217.000000 -442.000000,181.000000 -375.000000,167.000000 -332.000000"></path>
    </g>
    <g transform="scale(0.009963,0.009963)" id="GLYPHcmr10_115">
      <path style="fill-rule: evenodd;" d="M208.000000 -194.000000C230.000000 -190.000000,312.000000 -174.000000,312.000000 -102.000000C312.000000 -51.000000,277.000000 -11.000000,199.000000 -11.000000C115.000000 -11.000000,79.000000 -68.000000,60.000000 -153.000000C57.000000 -166.000000,56.000000 -170.000000,46.000000 -170.000000C33.000000 -170.000000,33.000000 -163.000000,33.000000 -145.000000L33.000000 -13.000000C33.000000 4.000000,33.000000 11.000000,44.000000 11.000000C49.000000 11.000000,50.000000 10.000000,69.000000 -9.000000C71.000000 -11.000000,71.000000 -13.000000,89.000000 -32.000000C133.000000 10.000000,178.000000 11.000000,199.000000 11.000000C314.000000 11.000000,360.000000 -56.000000,360.000000 -128.000000C360.000000 -181.000000,330.000000 -211.000000,318.000000 -223.000000C285.000000 -255.000000,246.000000 -263.000000,204.000000 -271.000000C148.000000 -282.000000,81.000000 -295.000000,81.000000 -353.000000C81.000000 -388.000000,107.000000 -429.000000,193.000000 -429.000000C303.000000 -429.000000,308.000000 -339.000000,310.000000 -308.000000C311.000000 -299.000000,320.000000 -299.000000,322.000000 -299.000000C335.000000 -299.000000,335.000000 -304.000000,335.000000 -323.000000L335.000000 -424.000000C335.000000 -441.000000,335.000000 -448.000000,324.000000 -448.000000C319.000000 -448.000000,317.000000 -448.000000,304.000000 -436.000000C301.000000 -432.000000,291.000000 -423.000000,287.000000 -420.000000C249.000000 -448.000000,208.000000 -448.000000,193.000000 -448.000000C71.000000 -448.000000,33.000000 -381.000000,33.000000 -325.000000C33.000000 -290.000000,49.000000 -262.000000,76.000000 -240.000000C108.000000 -214.000000,136.000000 -208.000000,208.000000 -194.000000"></path>
    </g>
    <g transform="scale(0.009963,0.009963)" id="GLYPHcmr10_116">
      <path style="fill-rule: evenodd;" d="M173.000000 -400.000000L316.000000 -400.000000L316.000000 -431.000000L173.000000 -431.000000L173.000000 -615.000000L148.000000 -615.000000C147.000000 -533.000000,117.000000 -426.000000,19.000000 -422.000000L19.000000 -400.000000L104.000000 -400.000000L104.000000 -124.000000C104.000000 -1.000000,197.000000 11.000000,233.000000 11.000000C304.000000 11.000000,332.000000 -60.000000,332.000000 -124.000000L332.000000 -181.000000L307.000000 -181.000000L307.000000 -126.000000C307.000000 -52.000000,277.000000 -14.000000,240.000000 -14.000000C173.000000 -14.000000,173.000000 -105.000000,173.000000 -122.000000"></path>
    </g>
    <g transform="scale(0.009963,0.009963)" id="GLYPHcmr10_117">
      <path style="fill-rule: evenodd;" d="M391.000000 -79.000000L391.000000 11.000000L535.000000 -0.000000L535.000000 -31.000000C465.000000 -31.000000,457.000000 -38.000000,457.000000 -87.000000L457.000000 -442.000000L310.000000 -431.000000L310.000000 -400.000000C380.000000 -400.000000,388.000000 -393.000000,388.000000 -344.000000L388.000000 -166.000000C388.000000 -79.000000,340.000000 -11.000000,267.000000 -11.000000C183.000000 -11.000000,179.000000 -58.000000,179.000000 -110.000000L179.000000 -442.000000L32.000000 -431.000000L32.000000 -400.000000C110.000000 -400.000000,110.000000 -397.000000,110.000000 -308.000000L110.000000 -158.000000C110.000000 -80.000000,110.000000 11.000000,262.000000 11.000000C318.000000 11.000000,362.000000 -17.000000,391.000000 -79.000000"></path>
    </g>
    <g transform="scale(0.009963,0.009963)" id="GLYPHcmr10_118">
      <path style="fill-rule: evenodd;" d="M416.000000 -333.000000C425.000000 -356.000000,442.000000 -399.000000,508.000000 -400.000000L508.000000 -431.000000C485.000000 -429.000000,456.000000 -428.000000,433.000000 -428.000000C409.000000 -428.000000,363.000000 -430.000000,346.000000 -431.000000L346.000000 -400.000000C383.000000 -399.000000,394.000000 -376.000000,394.000000 -357.000000C394.000000 -348.000000,392.000000 -344.000000,388.000000 -333.000000L286.000000 -78.000000L174.000000 -357.000000C168.000000 -370.000000,168.000000 -372.000000,168.000000 -374.000000C168.000000 -400.000000,207.000000 -400.000000,225.000000 -400.000000L225.000000 -431.000000C195.000000 -430.000000,139.000000 -428.000000,116.000000 -428.000000C89.000000 -428.000000,49.000000 -429.000000,19.000000 -431.000000L19.000000 -400.000000C82.000000 -400.000000,86.000000 -394.000000,99.000000 -363.000000L243.000000 -8.000000C249.000000 6.000000,251.000000 11.000000,264.000000 11.000000C277.000000 11.000000,281.000000 2.000000,285.000000 -8.000000"></path>
    </g>
    <g transform="scale(0.009963,0.009963)" id="GLYPHcmr10_120">
      <path style="fill-rule: evenodd;" d="M287.000000 -235.000000C317.000000 -273.000000,355.000000 -322.000000,379.000000 -348.000000C410.000000 -384.000000,451.000000 -399.000000,498.000000 -400.000000L498.000000 -431.000000C472.000000 -429.000000,442.000000 -428.000000,416.000000 -428.000000C386.000000 -428.000000,333.000000 -430.000000,320.000000 -431.000000L320.000000 -400.000000C341.000000 -398.000000,349.000000 -385.000000,349.000000 -369.000000C349.000000 -353.000000,339.000000 -340.000000,334.000000 -334.000000L272.000000 -256.000000L194.000000 -357.000000C185.000000 -367.000000,185.000000 -369.000000,185.000000 -375.000000C185.000000 -390.000000,200.000000 -399.000000,220.000000 -400.000000L220.000000 -431.000000C194.000000 -430.000000,128.000000 -428.000000,112.000000 -428.000000C91.000000 -428.000000,44.000000 -429.000000,17.000000 -431.000000L17.000000 -400.000000C87.000000 -400.000000,88.000000 -399.000000,135.000000 -339.000000L234.000000 -210.000000L140.000000 -91.000000C92.000000 -33.000000,33.000000 -31.000000,12.000000 -31.000000L12.000000 -0.000000C38.000000 -2.000000,69.000000 -3.000000,95.000000 -3.000000C124.000000 -3.000000,166.000000 -1.000000,190.000000 -0.000000L190.000000 -31.000000C168.000000 -34.000000,161.000000 -47.000000,161.000000 -62.000000C161.000000 -84.000000,190.000000 -117.000000,251.000000 -189.000000L327.000000 -89.000000C335.000000 -78.000000,348.000000 -62.000000,348.000000 -56.000000C348.000000 -47.000000,339.000000 -32.000000,312.000000 -31.000000L312.000000 -0.000000C342.000000 -1.000000,398.000000 -3.000000,420.000000 -3.000000C447.000000 -3.000000,486.000000 -2.000000,516.000000 -0.000000L516.000000 -31.000000C462.000000 -31.000000,444.000000 -33.000000,421.000000 -62.000000"></path>
    </g>
  </defs>
  <path d="M70.000000 57.000000L70.000000 457.000000" style="stroke:rgb(0.000000%,0.000000%,0.000000%); stroke-width: 0.500000;stroke-linecap: round;stroke-linejoin: round;stroke-miterlimit: 10.000000;fill: none;"></path>
  <path d="M220.000000 7.000000L220.000000 387.000000" style="stroke:rgb(0.000000%,0.000000%,0.000000%); stroke-width: 0.500000;stroke-linecap: round;stroke-linejoin: round;stroke-miterlimit: 10.000000;fill: none;"></path>
  <path d="M70.000000 57.000000C124.110611 94.888718,165.889389 -30.888718,220.000000 7.000000" style="stroke:rgb(0.000000%,0.000000%,0.000000%); stroke-width: 0.500000;stroke-linecap: round;stroke-linejoin: round;stroke-miterlimit: 10.000000;fill: none;"></path>
  <path d="M70.000000 457.000000C116.776718 503.776718,165.508087 425.155701,220.000000 387.000000" style="stroke:rgb(0.000000%,0.000000%,0.000000%); stroke-width: 0.500000;stroke-linecap: round;stroke-linejoin: round;stroke-miterlimit: 10.000000;fill: none;"></path>
  <path d="M70.000000 77.000000L220.000000 77.000000L220.000000 107.000000L70.000000 107.000000Z" style="stroke:rgb(0.000000%,0.000000%,0.000000%); stroke-width: 0.500000;stroke-linecap: round;stroke-linejoin: round;stroke-miterlimit: 10.000000;fill: none;"></path>
  <g transform="translate(125.392899 94.490662)" style="fill: rgb(0.000000%,0.000000%,0.000000%);">
    <use xlink:href="#GLYPHcmr10_83"></use>
    <use xlink:href="#GLYPHcmr10_107" x="5.555661"></use>
    <use xlink:href="#GLYPHcmr10_105" x="10.833546"></use>
    <use xlink:href="#GLYPHcmr10_112" x="13.611377"></use>
  </g>
  <g transform="translate(147.808899 94.490662)" style="fill: rgb(0.000000%,0.000000%,0.000000%);">
    <use xlink:href="#GLYPHcmr10_76"></use>
    <use xlink:href="#GLYPHcmr10_105" x="6.250115"></use>
    <use xlink:href="#GLYPHcmr10_115" x="9.027945"></use>
    <use xlink:href="#GLYPHcmr10_116" x="12.972460"></use>
  </g>
  <path d="M70.000000 107.000000L220.000000 107.000000L220.000000 157.000000L70.000000 157.000000Z" style="stroke:rgb(0.000000%,0.000000%,0.000000%); stroke-width: 0.500000;stroke-linecap: round;stroke-linejoin: round;stroke-miterlimit: 10.000000;fill: none;"></path>
  <g transform="translate(119.456848 134.435303)" style="fill: rgb(0.000000%,0.000000%,0.000000%);">
    <use xlink:href="#GLYPHcmr10_83"></use>
    <use xlink:href="#GLYPHcmr10_116" x="5.555661"></use>
    <use xlink:href="#GLYPHcmr10_114" x="9.444624"></use>
    <use xlink:href="#GLYPHcmr10_105" x="13.361370"></use>
    <use xlink:href="#GLYPHcmr10_112" x="16.139200"></use>
  </g>
  <g transform="translate(141.347046 134.435303)" style="fill: rgb(0.000000%,0.000000%,0.000000%);">
    <use xlink:href="#GLYPHcmr10_101"></use>
  </g>
  <g transform="translate(149.095749 134.435303)" style="fill: rgb(0.000000%,0.000000%,0.000000%);">
    <use xlink:href="#GLYPHcmr10_68"></use>
    <use xlink:href="#GLYPHcmr10_97" x="7.639022"></use>
    <use xlink:href="#GLYPHcmr10_116" x="12.639117"></use>
    <use xlink:href="#GLYPHcmr10_97" x="16.528080"></use>
  </g>
  <path d="M70.000000 157.000000L220.000000 157.000000L220.000000 177.000000L70.000000 177.000000Z" style="stroke:rgb(0.000000%,0.000000%,0.000000%); stroke-width: 0.500000;stroke-linecap: round;stroke-linejoin: round;stroke-miterlimit: 10.000000;fill: none;"></path>
  <g transform="translate(116.122101 169.435303)" style="fill: rgb(0.000000%,0.000000%,0.000000%);">
    <use xlink:href="#GLYPHcmr10_83"></use>
    <use xlink:href="#GLYPHcmr10_116" x="5.555661"></use>
    <use xlink:href="#GLYPHcmr10_114" x="9.444624"></use>
    <use xlink:href="#GLYPHcmr10_105" x="13.361370"></use>
    <use xlink:href="#GLYPHcmr10_112" x="16.139200"></use>
  </g>
  <g transform="translate(138.012299 169.435303)" style="fill: rgb(0.000000%,0.000000%,0.000000%);">
    <use xlink:href="#GLYPHcmr10_101"></use>
  </g>
  <g transform="translate(145.761002 169.435303)" style="fill: rgb(0.000000%,0.000000%,0.000000%);">
    <use xlink:href="#GLYPHcmr10_70"></use>
  </g>
  <g transform="translate(151.434204 169.435303)" style="fill: rgb(0.000000%,0.000000%,0.000000%);">
    <use xlink:href="#GLYPHcmr10_111"></use>
  </g>
  <g transform="translate(156.692307 169.435303)" style="fill: rgb(0.000000%,0.000000%,0.000000%);">
    <use xlink:href="#GLYPHcmr10_111"></use>
    <use xlink:href="#GLYPHcmr10_116" x="5.000095"></use>
    <use xlink:href="#GLYPHcmr10_101" x="8.889057"></use>
    <use xlink:href="#GLYPHcmr10_114" x="13.333586"></use>
  </g>
  <path d="M70.000000 77.000000C53.944016 88.242538,74.055984 115.757462,58.000000 127.000000C71.084061 140.084061,56.915939 163.915939,70.000000 177.000000" style="stroke:rgb(0.000000%,0.000000%,0.000000%); stroke-width: 0.500000;stroke-linecap: round;stroke-linejoin: round;stroke-miterlimit: 10.000000;fill: none;"></path>
  <path d="M66.490753 175.080063C67.553833 175.823135,68.717667 176.468857,70.000000 177.000000C69.468857 175.717667,69.102509 174.438126,68.876251 173.160965Z" style="stroke:rgb(0.000000%,0.000000%,0.000000%); stroke-width: 0.500000;fill: rgb(0.000000%,0.000000%,0.000000%);"></path>
  <path d="M68.301804 80.621567C68.678833 79.408691,69.234772 78.201187,70.000000 77.000000C68.609528 77.308243,67.362579 77.768951,66.238327 78.359970Z" style="stroke:rgb(0.000000%,0.000000%,0.000000%); stroke-width: 0.500000;fill: rgb(0.000000%,0.000000%,0.000000%);"></path>
  <g transform="matrix(1.500000,-0.000000,-0.000000,1.500000,3.069550 130.652954)" style="fill: rgb(0.000000%,0.000000%,0.000000%);">
    <use xlink:href="#GLYPHcmr10_83"></use>
    <use xlink:href="#GLYPHcmr10_116" x="5.555661"></use>
    <use xlink:href="#GLYPHcmr10_114" x="9.444624"></use>
    <use xlink:href="#GLYPHcmr10_105" x="13.361370"></use>
    <use xlink:href="#GLYPHcmr10_112" x="16.139200"></use>
  </g>
  <g transform="matrix(1.500000,-0.000000,-0.000000,1.500000,35.904846 130.652954)" style="fill: rgb(0.000000%,0.000000%,0.000000%);">
    <use xlink:href="#GLYPHcmr10_101"></use>
  </g>
  <g transform="matrix(1.500000,-0.000000,-0.000000,1.500000,47.527908 130.652954)" style="fill: rgb(0.000000%,0.000000%,0.000000%);">
    <use xlink:href="#GLYPHcmr10_49"></use>
  </g>
  <path d="M70.000000 282.000000L220.000000 282.000000L220.000000 312.000000L70.000000 312.000000Z" style="stroke:rgb(0.000000%,0.000000%,0.000000%); stroke-width: 0.500000;stroke-linecap: round;stroke-linejoin: round;stroke-miterlimit: 10.000000;fill: none;"></path>
  <g transform="translate(125.392899 299.490662)" style="fill: rgb(0.000000%,0.000000%,0.000000%);">
    <use xlink:href="#GLYPHcmr10_83"></use>
    <use xlink:href="#GLYPHcmr10_107" x="5.555661"></use>
    <use xlink:href="#GLYPHcmr10_105" x="10.833546"></use>
    <use xlink:href="#GLYPHcmr10_112" x="13.611377"></use>
  </g>
  <g transform="translate(147.808899 299.490662)" style="fill: rgb(0.000000%,0.000000%,0.000000%);">
    <use xlink:href="#GLYPHcmr10_76"></use>
    <use xlink:href="#GLYPHcmr10_105" x="6.250115"></use>
    <use xlink:href="#GLYPHcmr10_115" x="9.027945"></use>
    <use xlink:href="#GLYPHcmr10_116" x="12.972460"></use>
  </g>
  <path d="M70.000000 312.000000L220.000000 312.000000L220.000000 362.000000L70.000000 362.000000Z" style="stroke:rgb(0.000000%,0.000000%,0.000000%); stroke-width: 0.500000;stroke-linecap: round;stroke-linejoin: round;stroke-miterlimit: 10.000000;fill: none;"></path>
  <g transform="translate(119.456848 339.435303)" style="fill: rgb(0.000000%,0.000000%,0.000000%);">
    <use xlink:href="#GLYPHcmr10_83"></use>
    <use xlink:href="#GLYPHcmr10_116" x="5.555661"></use>
    <use xlink:href="#GLYPHcmr10_114" x="9.444624"></use>
    <use xlink:href="#GLYPHcmr10_105" x="13.361370"></use>
    <use xlink:href="#GLYPHcmr10_112" x="16.139200"></use>
  </g>
  <g transform="translate(141.347046 339.435303)" style="fill: rgb(0.000000%,0.000000%,0.000000%);">
    <use xlink:href="#GLYPHcmr10_101"></use>
  </g>
  <g transform="translate(149.095749 339.435303)" style="fill: rgb(0.000000%,0.000000%,0.000000%);">
    <use xlink:href="#GLYPHcmr10_68"></use>
    <use xlink:href="#GLYPHcmr10_97" x="7.639022"></use>
    <use xlink:href="#GLYPHcmr10_116" x="12.639117"></use>
    <use xlink:href="#GLYPHcmr10_97" x="16.528080"></use>
  </g>
  <path d="M70.000000 362.000000L220.000000 362.000000L220.000000 382.000000L70.000000 382.000000Z" style="stroke:rgb(0.000000%,0.000000%,0.000000%); stroke-width: 0.500000;stroke-linecap: round;stroke-linejoin: round;stroke-miterlimit: 10.000000;fill: none;"></path>
  <g transform="translate(116.122101 374.435303)" style="fill: rgb(0.000000%,0.000000%,0.000000%);">
    <use xlink:href="#GLYPHcmr10_83"></use>
    <use xlink:href="#GLYPHcmr10_116" x="5.555661"></use>
    <use xlink:href="#GLYPHcmr10_114" x="9.444624"></use>
    <use xlink:href="#GLYPHcmr10_105" x="13.361370"></use>
    <use xlink:href="#GLYPHcmr10_112" x="16.139200"></use>
  </g>
  <g transform="translate(138.012299 374.435303)" style="fill: rgb(0.000000%,0.000000%,0.000000%);">
    <use xlink:href="#GLYPHcmr10_101"></use>
  </g>
  <g transform="translate(145.761002 374.435303)" style="fill: rgb(0.000000%,0.000000%,0.000000%);">
    <use xlink:href="#GLYPHcmr10_70"></use>
  </g>
  <g transform="translate(151.434204 374.435303)" style="fill: rgb(0.000000%,0.000000%,0.000000%);">
    <use xlink:href="#GLYPHcmr10_111"></use>
  </g>
  <g transform="translate(156.692307 374.435303)" style="fill: rgb(0.000000%,0.000000%,0.000000%);">
    <use xlink:href="#GLYPHcmr10_111"></use>
    <use xlink:href="#GLYPHcmr10_116" x="5.000095"></use>
    <use xlink:href="#GLYPHcmr10_101" x="8.889057"></use>
    <use xlink:href="#GLYPHcmr10_114" x="13.333586"></use>
  </g>
  <path d="M70.000000 282.000000C53.944016 293.242538,74.055984 320.757462,58.000000 332.000000C71.084061 345.084061,56.915939 368.915939,70.000000 382.000000" style="stroke:rgb(0.000000%,0.000000%,0.000000%); stroke-width: 0.500000;stroke-linecap: round;stroke-linejoin: round;stroke-miterlimit: 10.000000;fill: none;"></path>
  <path d="M66.490753 380.080063C67.553833 380.823135,68.717667 381.468857,70.000000 382.000000C69.468857 380.717667,69.102509 379.438126,68.876251 378.160965Z" style="stroke:rgb(0.000000%,0.000000%,0.000000%); stroke-width: 0.500000;fill: rgb(0.000000%,0.000000%,0.000000%);"></path>
  <path d="M68.301804 285.621567C68.678833 284.408691,69.234772 283.201187,70.000000 282.000000C68.609528 282.308243,67.362579 282.768951,66.238327 283.359970Z" style="stroke:rgb(0.000000%,0.000000%,0.000000%); stroke-width: 0.500000;fill: rgb(0.000000%,0.000000%,0.000000%);"></path>
  <g transform="matrix(1.500000,-0.000000,-0.000000,1.500000,-0.666351 335.652954)" style="fill: rgb(0.000000%,0.000000%,0.000000%);">
    <use xlink:href="#GLYPHcmr10_83"></use>
    <use xlink:href="#GLYPHcmr10_116" x="5.555661"></use>
    <use xlink:href="#GLYPHcmr10_114" x="9.444624"></use>
    <use xlink:href="#GLYPHcmr10_105" x="13.361370"></use>
    <use xlink:href="#GLYPHcmr10_112" x="16.139200"></use>
  </g>
  <g transform="matrix(1.500000,-0.000000,-0.000000,1.500000,32.168945 335.652954)" style="fill: rgb(0.000000%,0.000000%,0.000000%);">
    <use xlink:href="#GLYPHcmr10_101"></use>
  </g>
  <g transform="matrix(1.500000,-0.000000,-0.000000,1.500000,43.792007 335.652954)" style="fill: rgb(0.000000%,0.000000%,0.000000%);">
    <use xlink:href="#GLYPHcmr10_88"></use>
  </g>
  <g transform="matrix(0.000000,-2.000000,2.000000,0.000000,146.051605 246.657898)" style="fill: rgb(0.000000%,0.000000%,0.000000%);">
    <use xlink:href="#GLYPHcmr10_46"></use>
  </g>
  <g transform="matrix(0.000000,-2.000000,2.000000,0.000000,146.051605 232.267487)" style="fill: rgb(0.000000%,0.000000%,0.000000%);">
    <use xlink:href="#GLYPHcmr10_46"></use>
  </g>
  <g transform="matrix(0.000000,-2.000000,2.000000,0.000000,146.051605 217.876892)" style="fill: rgb(0.000000%,0.000000%,0.000000%);">
    <use xlink:href="#GLYPHcmr10_46"></use>
  </g>
  <path d="M220.000000 77.000000L260.000000 67.000000" style="stroke:rgb(0.000000%,0.000000%,0.000000%); stroke-width: 0.500000;stroke-linecap: round;stroke-dasharray: 6.000000 6.000000 ;stroke-linejoin: round;stroke-miterlimit: 10.000000;fill: none;"></path>
  <path d="M220.000000 107.000000L260.000000 127.000000" style="stroke:rgb(0.000000%,0.000000%,0.000000%); stroke-width: 0.500000;stroke-linecap: round;stroke-dasharray: 6.000000 6.000000 ;stroke-linejoin: round;stroke-miterlimit: 10.000000;fill: none;"></path>
  <path d="M260.000000 67.000000L380.000000 67.000000" style="stroke:rgb(0.000000%,0.000000%,0.000000%); stroke-width: 0.500000;stroke-linecap: round;stroke-linejoin: round;stroke-miterlimit: 10.000000;fill: none;"></path>
  <path d="M260.000000 82.000000L380.000000 82.000000" style="stroke:rgb(0.000000%,0.000000%,0.000000%); stroke-width: 0.500000;stroke-linecap: round;stroke-linejoin: round;stroke-miterlimit: 10.000000;fill: none;"></path>
  <path d="M260.000000 112.000000L380.000000 112.000000" style="stroke:rgb(0.000000%,0.000000%,0.000000%); stroke-width: 0.500000;stroke-linecap: round;stroke-linejoin: round;stroke-miterlimit: 10.000000;fill: none;"></path>
  <path d="M260.000000 127.000000L380.000000 127.000000" style="stroke:rgb(0.000000%,0.000000%,0.000000%); stroke-width: 0.500000;stroke-linecap: round;stroke-linejoin: round;stroke-miterlimit: 10.000000;fill: none;"></path>
  <path d="M260.000000 67.000000L260.000000 127.000000" style="stroke:rgb(0.000000%,0.000000%,0.000000%); stroke-width: 0.500000;stroke-linecap: round;stroke-linejoin: round;stroke-miterlimit: 10.000000;fill: none;"></path>
  <path d="M380.000000 67.000000L380.000000 127.000000" style="stroke:rgb(0.000000%,0.000000%,0.000000%); stroke-width: 0.500000;stroke-linecap: round;stroke-linejoin: round;stroke-miterlimit: 10.000000;fill: none;"></path>
  <g transform="translate(277.423447 76.990662)" style="fill: rgb(0.000000%,0.000000%,0.000000%);">
    <use xlink:href="#GLYPHcmr10_67"></use>
    <use xlink:href="#GLYPHcmr10_111" x="7.222359"></use>
    <use xlink:href="#GLYPHcmr10_108" x="12.222454"></use>
    <use xlink:href="#GLYPHcmr10_117" x="15.000284"></use>
    <use xlink:href="#GLYPHcmr10_109" x="20.555945"></use>
    <use xlink:href="#GLYPHcmr10_110" x="28.889437"></use>
  </g>
  <g transform="translate(315.060150 76.990662)" style="fill: rgb(0.000000%,0.000000%,0.000000%);">
    <use xlink:href="#GLYPHcmr10_49"></use>
  </g>
  <g transform="translate(323.362350 76.990662)" style="fill: rgb(0.000000%,0.000000%,0.000000%);">
    <use xlink:href="#GLYPHcmr10_83"></use>
    <use xlink:href="#GLYPHcmr10_107" x="5.555661"></use>
    <use xlink:href="#GLYPHcmr10_105" x="10.833546"></use>
    <use xlink:href="#GLYPHcmr10_112" x="13.611377"></use>
  </g>
  <g transform="translate(345.778351 76.990662)" style="fill: rgb(0.000000%,0.000000%,0.000000%);">
    <use xlink:href="#GLYPHcmr10_76"></use>
    <use xlink:href="#GLYPHcmr10_105" x="6.250115"></use>
    <use xlink:href="#GLYPHcmr10_115" x="9.027945"></use>
    <use xlink:href="#GLYPHcmr10_116" x="12.972460"></use>
  </g>
  <g transform="matrix(0.000000,-1.000000,1.000000,0.000000,320.525803 105.578949)" style="fill: rgb(0.000000%,0.000000%,0.000000%);">
    <use xlink:href="#GLYPHcmr10_46"></use>
  </g>
  <g transform="matrix(0.000000,-1.000000,1.000000,0.000000,320.525803 98.383743)" style="fill: rgb(0.000000%,0.000000%,0.000000%);">
    <use xlink:href="#GLYPHcmr10_46"></use>
  </g>
  <g transform="matrix(0.000000,-1.000000,1.000000,0.000000,320.525803 91.188446)" style="fill: rgb(0.000000%,0.000000%,0.000000%);">
    <use xlink:href="#GLYPHcmr10_46"></use>
  </g>
  <g transform="translate(276.178146 121.990662)" style="fill: rgb(0.000000%,0.000000%,0.000000%);">
    <use xlink:href="#GLYPHcmr10_67"></use>
    <use xlink:href="#GLYPHcmr10_111" x="7.222359"></use>
    <use xlink:href="#GLYPHcmr10_108" x="12.222454"></use>
    <use xlink:href="#GLYPHcmr10_117" x="15.000284"></use>
    <use xlink:href="#GLYPHcmr10_109" x="20.555945"></use>
    <use xlink:href="#GLYPHcmr10_110" x="28.889437"></use>
  </g>
  <g transform="translate(313.814850 121.990662)" style="fill: rgb(0.000000%,0.000000%,0.000000%);">
    <use xlink:href="#GLYPHcmr10_78"></use>
  </g>
  <g transform="translate(324.607742 121.990662)" style="fill: rgb(0.000000%,0.000000%,0.000000%);">
    <use xlink:href="#GLYPHcmr10_83"></use>
    <use xlink:href="#GLYPHcmr10_107" x="5.555661"></use>
    <use xlink:href="#GLYPHcmr10_105" x="10.833546"></use>
    <use xlink:href="#GLYPHcmr10_112" x="13.611377"></use>
  </g>
  <g transform="translate(347.023743 121.990662)" style="fill: rgb(0.000000%,0.000000%,0.000000%);">
    <use xlink:href="#GLYPHcmr10_76"></use>
    <use xlink:href="#GLYPHcmr10_105" x="6.250115"></use>
    <use xlink:href="#GLYPHcmr10_115" x="9.027945"></use>
    <use xlink:href="#GLYPHcmr10_116" x="12.972460"></use>
  </g>
  <path d="M380.000000 67.000000L430.000000 62.000000" style="stroke:rgb(0.000000%,0.000000%,0.000000%); stroke-width: 0.500000;stroke-linecap: round;stroke-dasharray: 6.000000 6.000000 ;stroke-linejoin: round;stroke-miterlimit: 10.000000;fill: none;"></path>
  <path d="M380.000000 82.000000L430.000000 122.000000" style="stroke:rgb(0.000000%,0.000000%,0.000000%); stroke-width: 0.500000;stroke-linecap: round;stroke-dasharray: 6.000000 6.000000 ;stroke-linejoin: round;stroke-miterlimit: 10.000000;fill: none;"></path>
  <path d="M430.000000 62.000000L550.000000 62.000000" style="stroke:rgb(0.000000%,0.000000%,0.000000%); stroke-width: 0.500000;stroke-linecap: round;stroke-linejoin: round;stroke-miterlimit: 10.000000;fill: none;"></path>
  <path d="M430.000000 77.000000L550.000000 77.000000" style="stroke:rgb(0.000000%,0.000000%,0.000000%); stroke-width: 0.500000;stroke-linecap: round;stroke-linejoin: round;stroke-miterlimit: 10.000000;fill: none;"></path>
  <path d="M430.000000 107.000000L550.000000 107.000000" style="stroke:rgb(0.000000%,0.000000%,0.000000%); stroke-width: 0.500000;stroke-linecap: round;stroke-linejoin: round;stroke-miterlimit: 10.000000;fill: none;"></path>
  <path d="M430.000000 122.000000L550.000000 122.000000" style="stroke:rgb(0.000000%,0.000000%,0.000000%); stroke-width: 0.500000;stroke-linecap: round;stroke-linejoin: round;stroke-miterlimit: 10.000000;fill: none;"></path>
  <path d="M430.000000 62.000000L430.000000 122.000000" style="stroke:rgb(0.000000%,0.000000%,0.000000%); stroke-width: 0.500000;stroke-linecap: round;stroke-linejoin: round;stroke-miterlimit: 10.000000;fill: none;"></path>
  <path d="M550.000000 62.000000L550.000000 122.000000" style="stroke:rgb(0.000000%,0.000000%,0.000000%); stroke-width: 0.500000;stroke-linecap: round;stroke-linejoin: round;stroke-miterlimit: 10.000000;fill: none;"></path>
  <g transform="translate(449.388290 71.990662)" style="fill: rgb(0.000000%,0.000000%,0.000000%);">
    <use xlink:href="#GLYPHcmr10_66"></use>
    <use xlink:href="#GLYPHcmr10_108" x="7.083471"></use>
    <use xlink:href="#GLYPHcmr10_111" x="9.861302"></use>
  </g>
  <g transform="translate(464.470688 71.990662)" style="fill: rgb(0.000000%,0.000000%,0.000000%);">
    <use xlink:href="#GLYPHcmr10_99"></use>
  </g>
  <g transform="translate(468.621796 71.990662)" style="fill: rgb(0.000000%,0.000000%,0.000000%);">
    <use xlink:href="#GLYPHcmr10_107"></use>
  </g>
  <g transform="translate(477.200684 71.990662)" style="fill: rgb(0.000000%,0.000000%,0.000000%);">
    <use xlink:href="#GLYPHcmr10_49"></use>
  </g>
  <g transform="translate(485.502884 71.990662)" style="fill: rgb(0.000000%,0.000000%,0.000000%);">
    <use xlink:href="#GLYPHcmr10_83"></use>
    <use xlink:href="#GLYPHcmr10_107" x="5.555661"></use>
    <use xlink:href="#GLYPHcmr10_105" x="10.833546"></use>
    <use xlink:href="#GLYPHcmr10_112" x="13.611377"></use>
  </g>
  <g transform="translate(507.918884 71.990662)" style="fill: rgb(0.000000%,0.000000%,0.000000%);">
    <use xlink:href="#GLYPHcmr10_78"></use>
    <use xlink:href="#GLYPHcmr10_111" x="7.500135"></use>
  </g>
  <g transform="translate(520.648987 71.990662)" style="fill: rgb(0.000000%,0.000000%,0.000000%);">
    <use xlink:href="#GLYPHcmr10_100"></use>
    <use xlink:href="#GLYPHcmr10_101" x="5.555661"></use>
  </g>
  <g transform="matrix(0.000000,-1.000000,1.000000,0.000000,490.525803 100.578949)" style="fill: rgb(0.000000%,0.000000%,0.000000%);">
    <use xlink:href="#GLYPHcmr10_46"></use>
  </g>
  <g transform="matrix(0.000000,-1.000000,1.000000,0.000000,490.525803 93.383743)" style="fill: rgb(0.000000%,0.000000%,0.000000%);">
    <use xlink:href="#GLYPHcmr10_46"></use>
  </g>
  <g transform="matrix(0.000000,-1.000000,1.000000,0.000000,490.525803 86.188446)" style="fill: rgb(0.000000%,0.000000%,0.000000%);">
    <use xlink:href="#GLYPHcmr10_46"></use>
  </g>
  <g transform="translate(447.312744 116.990662)" style="fill: rgb(0.000000%,0.000000%,0.000000%);">
    <use xlink:href="#GLYPHcmr10_66"></use>
    <use xlink:href="#GLYPHcmr10_108" x="7.083471"></use>
    <use xlink:href="#GLYPHcmr10_111" x="9.861302"></use>
  </g>
  <g transform="translate(462.395142 116.990662)" style="fill: rgb(0.000000%,0.000000%,0.000000%);">
    <use xlink:href="#GLYPHcmr10_99"></use>
  </g>
  <g transform="translate(466.546249 116.990662)" style="fill: rgb(0.000000%,0.000000%,0.000000%);">
    <use xlink:href="#GLYPHcmr10_107"></use>
  </g>
  <g transform="translate(475.125137 116.990662)" style="fill: rgb(0.000000%,0.000000%,0.000000%);">
    <use xlink:href="#GLYPHcmr10_77"></use>
  </g>
  <g transform="translate(487.578537 116.990662)" style="fill: rgb(0.000000%,0.000000%,0.000000%);">
    <use xlink:href="#GLYPHcmr10_83"></use>
    <use xlink:href="#GLYPHcmr10_107" x="5.555661"></use>
    <use xlink:href="#GLYPHcmr10_105" x="10.833546"></use>
    <use xlink:href="#GLYPHcmr10_112" x="13.611377"></use>
  </g>
  <g transform="translate(509.994537 116.990662)" style="fill: rgb(0.000000%,0.000000%,0.000000%);">
    <use xlink:href="#GLYPHcmr10_78"></use>
    <use xlink:href="#GLYPHcmr10_111" x="7.500135"></use>
  </g>
  <g transform="translate(522.724548 116.990662)" style="fill: rgb(0.000000%,0.000000%,0.000000%);">
    <use xlink:href="#GLYPHcmr10_100"></use>
    <use xlink:href="#GLYPHcmr10_101" x="5.555661"></use>
  </g>
  <path d="M220.000000 107.000000L270.000000 177.000000" style="stroke:rgb(0.000000%,0.000000%,0.000000%); stroke-width: 0.500000;stroke-linecap: round;stroke-dasharray: 6.000000 6.000000 ;stroke-linejoin: round;stroke-miterlimit: 10.000000;fill: none;"></path>
  <path d="M220.000000 157.000000L270.000000 237.000000" style="stroke:rgb(0.000000%,0.000000%,0.000000%); stroke-width: 0.500000;stroke-linecap: round;stroke-dasharray: 6.000000 6.000000 ;stroke-linejoin: round;stroke-miterlimit: 10.000000;fill: none;"></path>
  <path d="M270.000000 177.000000L390.000000 177.000000" style="stroke:rgb(0.000000%,0.000000%,0.000000%); stroke-width: 0.500000;stroke-linecap: round;stroke-linejoin: round;stroke-miterlimit: 10.000000;fill: none;"></path>
  <path d="M270.000000 192.000000L390.000000 192.000000" style="stroke:rgb(0.000000%,0.000000%,0.000000%); stroke-width: 0.500000;stroke-linecap: round;stroke-linejoin: round;stroke-miterlimit: 10.000000;fill: none;"></path>
  <path d="M270.000000 222.000000L390.000000 222.000000" style="stroke:rgb(0.000000%,0.000000%,0.000000%); stroke-width: 0.500000;stroke-linecap: round;stroke-linejoin: round;stroke-miterlimit: 10.000000;fill: none;"></path>
  <path d="M270.000000 237.000000L390.000000 237.000000" style="stroke:rgb(0.000000%,0.000000%,0.000000%); stroke-width: 0.500000;stroke-linecap: round;stroke-linejoin: round;stroke-miterlimit: 10.000000;fill: none;"></path>
  <path d="M270.000000 177.000000L270.000000 237.000000" style="stroke:rgb(0.000000%,0.000000%,0.000000%); stroke-width: 0.500000;stroke-linecap: round;stroke-linejoin: round;stroke-miterlimit: 10.000000;fill: none;"></path>
  <path d="M390.000000 177.000000L390.000000 237.000000" style="stroke:rgb(0.000000%,0.000000%,0.000000%); stroke-width: 0.500000;stroke-linecap: round;stroke-linejoin: round;stroke-miterlimit: 10.000000;fill: none;"></path>
  <g transform="translate(296.306839 187.959259)" style="fill: rgb(0.000000%,0.000000%,0.000000%);">
    <use xlink:href="#GLYPHcmr10_67"></use>
    <use xlink:href="#GLYPHcmr10_111" x="7.222359"></use>
    <use xlink:href="#GLYPHcmr10_108" x="12.222454"></use>
    <use xlink:href="#GLYPHcmr10_117" x="15.000284"></use>
    <use xlink:href="#GLYPHcmr10_109" x="20.555945"></use>
    <use xlink:href="#GLYPHcmr10_110" x="28.889437"></use>
  </g>
  <g transform="translate(333.943542 187.959259)" style="fill: rgb(0.000000%,0.000000%,0.000000%);">
    <use xlink:href="#GLYPHcmr10_49"></use>
  </g>
  <g transform="translate(342.245743 187.959259)" style="fill: rgb(0.000000%,0.000000%,0.000000%);">
    <use xlink:href="#GLYPHcmr10_68"></use>
    <use xlink:href="#GLYPHcmr10_97" x="7.639022"></use>
    <use xlink:href="#GLYPHcmr10_116" x="12.639117"></use>
    <use xlink:href="#GLYPHcmr10_97" x="16.528080"></use>
  </g>
  <g transform="matrix(0.000000,-1.000000,1.000000,0.000000,330.525803 215.578949)" style="fill: rgb(0.000000%,0.000000%,0.000000%);">
    <use xlink:href="#GLYPHcmr10_46"></use>
  </g>
  <g transform="matrix(0.000000,-1.000000,1.000000,0.000000,330.525803 208.383743)" style="fill: rgb(0.000000%,0.000000%,0.000000%);">
    <use xlink:href="#GLYPHcmr10_46"></use>
  </g>
  <g transform="matrix(0.000000,-1.000000,1.000000,0.000000,330.525803 201.188446)" style="fill: rgb(0.000000%,0.000000%,0.000000%);">
    <use xlink:href="#GLYPHcmr10_46"></use>
  </g>
  <g transform="translate(295.061493 232.959259)" style="fill: rgb(0.000000%,0.000000%,0.000000%);">
    <use xlink:href="#GLYPHcmr10_67"></use>
    <use xlink:href="#GLYPHcmr10_111" x="7.222359"></use>
    <use xlink:href="#GLYPHcmr10_108" x="12.222454"></use>
    <use xlink:href="#GLYPHcmr10_117" x="15.000284"></use>
    <use xlink:href="#GLYPHcmr10_109" x="20.555945"></use>
    <use xlink:href="#GLYPHcmr10_110" x="28.889437"></use>
  </g>
  <g transform="translate(332.698196 232.959259)" style="fill: rgb(0.000000%,0.000000%,0.000000%);">
    <use xlink:href="#GLYPHcmr10_78"></use>
  </g>
  <g transform="translate(343.491089 232.959259)" style="fill: rgb(0.000000%,0.000000%,0.000000%);">
    <use xlink:href="#GLYPHcmr10_68"></use>
    <use xlink:href="#GLYPHcmr10_97" x="7.639022"></use>
    <use xlink:href="#GLYPHcmr10_116" x="12.639117"></use>
    <use xlink:href="#GLYPHcmr10_97" x="16.528080"></use>
  </g>
  <path d="M390.000000 177.000000L440.000000 172.000000" style="stroke:rgb(0.000000%,0.000000%,0.000000%); stroke-width: 0.500000;stroke-linecap: round;stroke-dasharray: 6.000000 6.000000 ;stroke-linejoin: round;stroke-miterlimit: 10.000000;fill: none;"></path>
  <path d="M390.000000 192.000000L440.000000 292.000000" style="stroke:rgb(0.000000%,0.000000%,0.000000%); stroke-width: 0.500000;stroke-linecap: round;stroke-dasharray: 6.000000 6.000000 ;stroke-linejoin: round;stroke-miterlimit: 10.000000;fill: none;"></path>
  <path d="M440.000000 172.000000L560.000000 172.000000" style="stroke:rgb(0.000000%,0.000000%,0.000000%); stroke-width: 0.500000;stroke-linecap: round;stroke-linejoin: round;stroke-miterlimit: 10.000000;fill: none;"></path>
  <path d="M440.000000 187.000000L560.000000 187.000000" style="stroke:rgb(0.000000%,0.000000%,0.000000%); stroke-width: 0.500000;stroke-linecap: round;stroke-linejoin: round;stroke-miterlimit: 10.000000;fill: none;"></path>
  <path d="M440.000000 217.000000L560.000000 217.000000" style="stroke:rgb(0.000000%,0.000000%,0.000000%); stroke-width: 0.500000;stroke-linecap: round;stroke-linejoin: round;stroke-miterlimit: 10.000000;fill: none;"></path>
  <path d="M440.000000 232.000000L560.000000 232.000000" style="stroke:rgb(0.000000%,0.000000%,0.000000%); stroke-width: 0.500000;stroke-linecap: round;stroke-linejoin: round;stroke-miterlimit: 10.000000;fill: none;"></path>
  <path d="M440.000000 172.000000L440.000000 232.000000" style="stroke:rgb(0.000000%,0.000000%,0.000000%); stroke-width: 0.500000;stroke-linecap: round;stroke-linejoin: round;stroke-miterlimit: 10.000000;fill: none;"></path>
  <path d="M560.000000 172.000000L560.000000 232.000000" style="stroke:rgb(0.000000%,0.000000%,0.000000%); stroke-width: 0.500000;stroke-linecap: round;stroke-linejoin: round;stroke-miterlimit: 10.000000;fill: none;"></path>
  <g transform="translate(453.479889 182.959259)" style="fill: rgb(0.000000%,0.000000%,0.000000%);">
    <use xlink:href="#GLYPHcmr10_66"></use>
    <use xlink:href="#GLYPHcmr10_108" x="7.083471"></use>
    <use xlink:href="#GLYPHcmr10_111" x="9.861302"></use>
  </g>
  <g transform="translate(468.562286 182.959259)" style="fill: rgb(0.000000%,0.000000%,0.000000%);">
    <use xlink:href="#GLYPHcmr10_99"></use>
  </g>
  <g transform="translate(472.713394 182.959259)" style="fill: rgb(0.000000%,0.000000%,0.000000%);">
    <use xlink:href="#GLYPHcmr10_107"></use>
  </g>
  <g transform="translate(481.292282 182.959259)" style="fill: rgb(0.000000%,0.000000%,0.000000%);">
    <use xlink:href="#GLYPHcmr10_49"></use>
  </g>
  <g transform="translate(489.594482 182.959259)" style="fill: rgb(0.000000%,0.000000%,0.000000%);">
    <use xlink:href="#GLYPHcmr10_101"></use>
    <use xlink:href="#GLYPHcmr10_120" x="4.444529"></use>
    <use xlink:href="#GLYPHcmr10_105" x="9.722414"></use>
    <use xlink:href="#GLYPHcmr10_115" x="12.500245"></use>
    <use xlink:href="#GLYPHcmr10_116" x="16.444759"></use>
    <use xlink:href="#GLYPHcmr10_115" x="20.333722"></use>
  </g>
  <g transform="translate(517.102493 182.959259)" style="fill: rgb(0.000000%,0.000000%,0.000000%);">
    <use xlink:href="#GLYPHcmr10_115"></use>
    <use xlink:href="#GLYPHcmr10_116" x="3.944515"></use>
    <use xlink:href="#GLYPHcmr10_114" x="7.833477"></use>
    <use xlink:href="#GLYPHcmr10_101" x="11.750224"></use>
    <use xlink:href="#GLYPHcmr10_97" x="16.194752"></use>
    <use xlink:href="#GLYPHcmr10_109" x="21.194847"></use>
  </g>
  <g transform="matrix(0.000000,-1.000000,1.000000,0.000000,500.525803 210.578949)" style="fill: rgb(0.000000%,0.000000%,0.000000%);">
    <use xlink:href="#GLYPHcmr10_46"></use>
  </g>
  <g transform="matrix(0.000000,-1.000000,1.000000,0.000000,500.525803 203.383743)" style="fill: rgb(0.000000%,0.000000%,0.000000%);">
    <use xlink:href="#GLYPHcmr10_46"></use>
  </g>
  <g transform="matrix(0.000000,-1.000000,1.000000,0.000000,500.525803 196.188446)" style="fill: rgb(0.000000%,0.000000%,0.000000%);">
    <use xlink:href="#GLYPHcmr10_46"></use>
  </g>
  <g transform="translate(451.404343 227.959259)" style="fill: rgb(0.000000%,0.000000%,0.000000%);">
    <use xlink:href="#GLYPHcmr10_66"></use>
    <use xlink:href="#GLYPHcmr10_108" x="7.083471"></use>
    <use xlink:href="#GLYPHcmr10_111" x="9.861302"></use>
  </g>
  <g transform="translate(466.486740 227.959259)" style="fill: rgb(0.000000%,0.000000%,0.000000%);">
    <use xlink:href="#GLYPHcmr10_99"></use>
  </g>
  <g transform="translate(470.637848 227.959259)" style="fill: rgb(0.000000%,0.000000%,0.000000%);">
    <use xlink:href="#GLYPHcmr10_107"></use>
  </g>
  <g transform="translate(479.216736 227.959259)" style="fill: rgb(0.000000%,0.000000%,0.000000%);">
    <use xlink:href="#GLYPHcmr10_77"></use>
  </g>
  <g transform="translate(491.670135 227.959259)" style="fill: rgb(0.000000%,0.000000%,0.000000%);">
    <use xlink:href="#GLYPHcmr10_101"></use>
    <use xlink:href="#GLYPHcmr10_120" x="4.444529"></use>
    <use xlink:href="#GLYPHcmr10_105" x="9.722414"></use>
    <use xlink:href="#GLYPHcmr10_115" x="12.500245"></use>
    <use xlink:href="#GLYPHcmr10_116" x="16.444759"></use>
    <use xlink:href="#GLYPHcmr10_115" x="20.333722"></use>
  </g>
  <g transform="translate(519.178040 227.959259)" style="fill: rgb(0.000000%,0.000000%,0.000000%);">
    <use xlink:href="#GLYPHcmr10_115"></use>
    <use xlink:href="#GLYPHcmr10_116" x="3.944515"></use>
    <use xlink:href="#GLYPHcmr10_114" x="7.833477"></use>
    <use xlink:href="#GLYPHcmr10_101" x="11.750224"></use>
    <use xlink:href="#GLYPHcmr10_97" x="16.194752"></use>
    <use xlink:href="#GLYPHcmr10_109" x="21.194847"></use>
  </g>
  <path d="M440.000000 232.000000L560.000000 232.000000" style="stroke:rgb(0.000000%,0.000000%,0.000000%); stroke-width: 0.500000;stroke-linecap: round;stroke-linejoin: round;stroke-miterlimit: 10.000000;fill: none;"></path>
  <path d="M440.000000 247.000000L560.000000 247.000000" style="stroke:rgb(0.000000%,0.000000%,0.000000%); stroke-width: 0.500000;stroke-linecap: round;stroke-linejoin: round;stroke-miterlimit: 10.000000;fill: none;"></path>
  <path d="M440.000000 277.000000L560.000000 277.000000" style="stroke:rgb(0.000000%,0.000000%,0.000000%); stroke-width: 0.500000;stroke-linecap: round;stroke-linejoin: round;stroke-miterlimit: 10.000000;fill: none;"></path>
  <path d="M440.000000 292.000000L560.000000 292.000000" style="stroke:rgb(0.000000%,0.000000%,0.000000%); stroke-width: 0.500000;stroke-linecap: round;stroke-linejoin: round;stroke-miterlimit: 10.000000;fill: none;"></path>
  <path d="M440.000000 232.000000L440.000000 292.000000" style="stroke:rgb(0.000000%,0.000000%,0.000000%); stroke-width: 0.500000;stroke-linecap: round;stroke-linejoin: round;stroke-miterlimit: 10.000000;fill: none;"></path>
  <path d="M560.000000 232.000000L560.000000 292.000000" style="stroke:rgb(0.000000%,0.000000%,0.000000%); stroke-width: 0.500000;stroke-linecap: round;stroke-linejoin: round;stroke-miterlimit: 10.000000;fill: none;"></path>
  <g transform="translate(452.400650 242.959259)" style="fill: rgb(0.000000%,0.000000%,0.000000%);">
    <use xlink:href="#GLYPHcmr10_66"></use>
    <use xlink:href="#GLYPHcmr10_108" x="7.083471"></use>
    <use xlink:href="#GLYPHcmr10_111" x="9.861302"></use>
  </g>
  <g transform="translate(467.483047 242.959259)" style="fill: rgb(0.000000%,0.000000%,0.000000%);">
    <use xlink:href="#GLYPHcmr10_99"></use>
  </g>
  <g transform="translate(471.634155 242.959259)" style="fill: rgb(0.000000%,0.000000%,0.000000%);">
    <use xlink:href="#GLYPHcmr10_107"></use>
  </g>
  <g transform="translate(480.213043 242.959259)" style="fill: rgb(0.000000%,0.000000%,0.000000%);">
    <use xlink:href="#GLYPHcmr10_49"></use>
  </g>
  <g transform="translate(488.515244 242.959259)" style="fill: rgb(0.000000%,0.000000%,0.000000%);">
    <use xlink:href="#GLYPHcmr10_118"></use>
  </g>
  <g transform="translate(493.219849 242.959259)" style="fill: rgb(0.000000%,0.000000%,0.000000%);">
    <use xlink:href="#GLYPHcmr10_97"></use>
    <use xlink:href="#GLYPHcmr10_108" x="5.000095"></use>
    <use xlink:href="#GLYPHcmr10_117" x="7.777925"></use>
    <use xlink:href="#GLYPHcmr10_101" x="13.333586"></use>
    <use xlink:href="#GLYPHcmr10_115" x="17.778115"></use>
  </g>
  <g transform="translate(518.181854 242.959259)" style="fill: rgb(0.000000%,0.000000%,0.000000%);">
    <use xlink:href="#GLYPHcmr10_115"></use>
    <use xlink:href="#GLYPHcmr10_116" x="3.944515"></use>
    <use xlink:href="#GLYPHcmr10_114" x="7.833477"></use>
    <use xlink:href="#GLYPHcmr10_101" x="11.750224"></use>
    <use xlink:href="#GLYPHcmr10_97" x="16.194752"></use>
    <use xlink:href="#GLYPHcmr10_109" x="21.194847"></use>
  </g>
  <g transform="matrix(0.000000,-1.000000,1.000000,0.000000,500.525803 270.578949)" style="fill: rgb(0.000000%,0.000000%,0.000000%);">
    <use xlink:href="#GLYPHcmr10_46"></use>
  </g>
  <g transform="matrix(0.000000,-1.000000,1.000000,0.000000,500.525803 263.383743)" style="fill: rgb(0.000000%,0.000000%,0.000000%);">
    <use xlink:href="#GLYPHcmr10_46"></use>
  </g>
  <g transform="matrix(0.000000,-1.000000,1.000000,0.000000,500.525803 256.188446)" style="fill: rgb(0.000000%,0.000000%,0.000000%);">
    <use xlink:href="#GLYPHcmr10_46"></use>
  </g>
  <g transform="translate(450.325043 287.959259)" style="fill: rgb(0.000000%,0.000000%,0.000000%);">
    <use xlink:href="#GLYPHcmr10_66"></use>
    <use xlink:href="#GLYPHcmr10_108" x="7.083471"></use>
    <use xlink:href="#GLYPHcmr10_111" x="9.861302"></use>
  </g>
  <g transform="translate(465.407440 287.959259)" style="fill: rgb(0.000000%,0.000000%,0.000000%);">
    <use xlink:href="#GLYPHcmr10_99"></use>
  </g>
  <g transform="translate(469.558548 287.959259)" style="fill: rgb(0.000000%,0.000000%,0.000000%);">
    <use xlink:href="#GLYPHcmr10_107"></use>
  </g>
  <g transform="translate(478.137436 287.959259)" style="fill: rgb(0.000000%,0.000000%,0.000000%);">
    <use xlink:href="#GLYPHcmr10_77"></use>
  </g>
  <g transform="translate(490.590836 287.959259)" style="fill: rgb(0.000000%,0.000000%,0.000000%);">
    <use xlink:href="#GLYPHcmr10_118"></use>
  </g>
  <g transform="translate(495.295441 287.959259)" style="fill: rgb(0.000000%,0.000000%,0.000000%);">
    <use xlink:href="#GLYPHcmr10_97"></use>
    <use xlink:href="#GLYPHcmr10_108" x="5.000095"></use>
    <use xlink:href="#GLYPHcmr10_117" x="7.777925"></use>
    <use xlink:href="#GLYPHcmr10_101" x="13.333586"></use>
    <use xlink:href="#GLYPHcmr10_115" x="17.778115"></use>
  </g>
  <g transform="translate(520.257339 287.959259)" style="fill: rgb(0.000000%,0.000000%,0.000000%);">
    <use xlink:href="#GLYPHcmr10_115"></use>
    <use xlink:href="#GLYPHcmr10_116" x="3.944515"></use>
    <use xlink:href="#GLYPHcmr10_114" x="7.833477"></use>
    <use xlink:href="#GLYPHcmr10_101" x="11.750224"></use>
    <use xlink:href="#GLYPHcmr10_97" x="16.194752"></use>
    <use xlink:href="#GLYPHcmr10_109" x="21.194847"></use>
  </g>
</svg>
