<?xml version="1.0"?>
<!-- Created by MetaPost 2.00 on 2018.10.28:2218 -->
<svg version="1.1" xmlns="http://www.w3.org/2000/svg" xmlns:xlink="http://www.w3.org/1999/xlink" width="186.055695" height="252.312698" viewBox="0 0 186.055695 252.312698">
<!-- Original BoundingBox: -0.250000 -252.062698 185.805695 0.250000 -->
  <defs>
    <g transform="scale(0.009963,0.009963)" id="GLYPHcmr10_40">
      <path style="fill-rule: evenodd;" d="M331.000000 240.000000C331.000000 237.000000,331.000000 235.000000,314.000000 218.000000C189.000000 92.000000,157.000000 -97.000000,157.000000 -250.000000C157.000000 -424.000000,195.000000 -598.000000,318.000000 -723.000000C331.000000 -735.000000,331.000000 -737.000000,331.000000 -740.000000C331.000000 -747.000000,327.000000 -750.000000,321.000000 -750.000000C311.000000 -750.000000,221.000000 -682.000000,162.000000 -555.000000C111.000000 -445.000000,99.000000 -334.000000,99.000000 -250.000000C99.000000 -172.000000,110.000000 -51.000000,165.000000 62.000000C225.000000 185.000000,311.000000 250.000000,321.000000 250.000000C327.000000 250.000000,331.000000 247.000000,331.000000 240.000000"></path>
    </g>
    <g transform="scale(0.009963,0.009963)" id="GLYPHcmr10_41">
      <path style="fill-rule: evenodd;" d="M289.000000 -250.000000C289.000000 -328.000000,278.000000 -449.000000,223.000000 -562.000000C163.000000 -685.000000,77.000000 -750.000000,67.000000 -750.000000C61.000000 -750.000000,57.000000 -746.000000,57.000000 -740.000000C57.000000 -737.000000,57.000000 -735.000000,76.000000 -717.000000C174.000000 -618.000000,231.000000 -459.000000,231.000000 -250.000000C231.000000 -79.000000,194.000000 97.000000,70.000000 223.000000C57.000000 235.000000,57.000000 237.000000,57.000000 240.000000C57.000000 246.000000,61.000000 250.000000,67.000000 250.000000C77.000000 250.000000,167.000000 182.000000,226.000000 55.000000C277.000000 -55.000000,289.000000 -166.000000,289.000000 -250.000000"></path>
    </g>
    <g transform="scale(0.009963,0.009963)" id="GLYPHcmr10_77">
      <path style="fill-rule: evenodd;" d="M241.000000 -661.000000C232.000000 -683.000000,229.000000 -683.000000,206.000000 -683.000000L37.000000 -683.000000L37.000000 -652.000000L61.000000 -652.000000C138.000000 -652.000000,140.000000 -641.000000,140.000000 -605.000000L140.000000 -105.000000C140.000000 -78.000000,140.000000 -31.000000,37.000000 -31.000000L37.000000 -0.000000C72.000000 -1.000000,121.000000 -3.000000,154.000000 -3.000000C187.000000 -3.000000,236.000000 -1.000000,271.000000 -0.000000L271.000000 -31.000000C168.000000 -31.000000,168.000000 -78.000000,168.000000 -105.000000L168.000000 -644.000000L169.000000 -644.000000L410.000000 -22.000000C415.000000 -9.000000,420.000000 -0.000000,430.000000 -0.000000C441.000000 -0.000000,444.000000 -8.000000,448.000000 -19.000000L694.000000 -652.000000L695.000000 -652.000000L695.000000 -78.000000C695.000000 -42.000000,693.000000 -31.000000,616.000000 -31.000000L592.000000 -31.000000L592.000000 -0.000000C629.000000 -3.000000,697.000000 -3.000000,736.000000 -3.000000C775.000000 -3.000000,842.000000 -3.000000,879.000000 -0.000000L879.000000 -31.000000L855.000000 -31.000000C778.000000 -31.000000,776.000000 -42.000000,776.000000 -78.000000L776.000000 -605.000000C776.000000 -641.000000,778.000000 -652.000000,855.000000 -652.000000L879.000000 -652.000000L879.000000 -683.000000L710.000000 -683.000000C684.000000 -683.000000,684.000000 -682.000000,677.000000 -664.000000L458.000000 -101.000000"></path>
    </g>
    <g transform="scale(0.009963,0.009963)" id="GLYPHcmr10_80">
      <path style="fill-rule: evenodd;" d="M227.000000 -316.000000L396.000000 -316.000000C516.000000 -316.000000,624.000000 -397.000000,624.000000 -497.000000C624.000000 -595.000000,525.000000 -683.000000,388.000000 -683.000000L35.000000 -683.000000L35.000000 -652.000000L59.000000 -652.000000C136.000000 -652.000000,138.000000 -641.000000,138.000000 -605.000000L138.000000 -78.000000C138.000000 -42.000000,136.000000 -31.000000,59.000000 -31.000000L35.000000 -31.000000L35.000000 -0.000000C70.000000 -3.000000,144.000000 -3.000000,182.000000 -3.000000C220.000000 -3.000000,295.000000 -3.000000,330.000000 -0.000000L330.000000 -31.000000L306.000000 -31.000000C229.000000 -31.000000,227.000000 -42.000000,227.000000 -78.000000M224.000000 -342.000000L224.000000 -612.000000C224.000000 -645.000000,226.000000 -652.000000,273.000000 -652.000000L362.000000 -652.000000C521.000000 -652.000000,521.000000 -546.000000,521.000000 -497.000000C521.000000 -450.000000,521.000000 -342.000000,362.000000 -342.000000"></path>
    </g>
    <g transform="scale(0.009963,0.009963)" id="GLYPHcmr10_83">
      <path style="fill-rule: evenodd;" d="M349.000000 -388.000000L221.000000 -419.000000C159.000000 -434.000000,120.000000 -488.000000,120.000000 -546.000000C120.000000 -616.000000,174.000000 -677.000000,252.000000 -677.000000C419.000000 -677.000000,441.000000 -513.000000,447.000000 -468.000000C448.000000 -462.000000,448.000000 -456.000000,459.000000 -456.000000C472.000000 -456.000000,472.000000 -461.000000,472.000000 -480.000000L472.000000 -681.000000C472.000000 -698.000000,472.000000 -705.000000,461.000000 -705.000000C454.000000 -705.000000,453.000000 -704.000000,446.000000 -692.000000L411.000000 -635.000000C381.000000 -664.000000,340.000000 -705.000000,251.000000 -705.000000C140.000000 -705.000000,56.000000 -617.000000,56.000000 -511.000000C56.000000 -428.000000,109.000000 -355.000000,187.000000 -328.000000C198.000000 -324.000000,249.000000 -312.000000,319.000000 -295.000000C346.000000 -288.000000,376.000000 -281.000000,404.000000 -244.000000C425.000000 -218.000000,435.000000 -185.000000,435.000000 -152.000000C435.000000 -81.000000,385.000000 -9.000000,301.000000 -9.000000C272.000000 -9.000000,196.000000 -14.000000,143.000000 -63.000000C85.000000 -117.000000,82.000000 -181.000000,81.000000 -217.000000C80.000000 -227.000000,72.000000 -227.000000,69.000000 -227.000000C56.000000 -227.000000,56.000000 -220.000000,56.000000 -202.000000L56.000000 -2.000000C56.000000 15.000000,56.000000 22.000000,67.000000 22.000000C74.000000 22.000000,75.000000 20.000000,82.000000 9.000000C82.000000 8.000000,85.000000 5.000000,118.000000 -48.000000C149.000000 -14.000000,213.000000 22.000000,302.000000 22.000000C419.000000 22.000000,499.000000 -76.000000,499.000000 -186.000000C499.000000 -286.000000,433.000000 -368.000000,349.000000 -388.000000"></path>
    </g>
    <g transform="scale(0.009963,0.009963)" id="GLYPHcmr10_97">
      <path style="fill-rule: evenodd;" d="M333.000000 -76.000000C337.000000 -36.000000,364.000000 6.000000,411.000000 6.000000C432.000000 6.000000,493.000000 -8.000000,493.000000 -89.000000L493.000000 -145.000000L468.000000 -145.000000L468.000000 -89.000000C468.000000 -31.000000,443.000000 -25.000000,432.000000 -25.000000C399.000000 -25.000000,395.000000 -70.000000,395.000000 -75.000000L395.000000 -275.000000C395.000000 -317.000000,395.000000 -356.000000,359.000000 -393.000000C320.000000 -432.000000,270.000000 -448.000000,222.000000 -448.000000C140.000000 -448.000000,71.000000 -401.000000,71.000000 -335.000000C71.000000 -305.000000,91.000000 -288.000000,117.000000 -288.000000C145.000000 -288.000000,163.000000 -308.000000,163.000000 -334.000000C163.000000 -346.000000,158.000000 -379.000000,112.000000 -380.000000C139.000000 -415.000000,188.000000 -426.000000,220.000000 -426.000000C269.000000 -426.000000,326.000000 -387.000000,326.000000 -298.000000L326.000000 -261.000000C275.000000 -258.000000,205.000000 -255.000000,142.000000 -225.000000C67.000000 -191.000000,42.000000 -139.000000,42.000000 -95.000000C42.000000 -14.000000,139.000000 11.000000,202.000000 11.000000C268.000000 11.000000,314.000000 -29.000000,333.000000 -76.000000M326.000000 -240.000000L326.000000 -140.000000C326.000000 -45.000000,254.000000 -11.000000,209.000000 -11.000000C160.000000 -11.000000,119.000000 -46.000000,119.000000 -96.000000C119.000000 -151.000000,161.000000 -234.000000,326.000000 -240.000000"></path>
    </g>
    <g transform="scale(0.009963,0.009963)" id="GLYPHcmr10_98">
      <path style="fill-rule: evenodd;" d="M172.000000 -377.000000L172.000000 -694.000000L28.000000 -683.000000L28.000000 -652.000000C98.000000 -652.000000,106.000000 -645.000000,106.000000 -596.000000L106.000000 -0.000000L131.000000 -0.000000C132.000000 -1.000000,140.000000 -15.000000,167.000000 -62.000000C182.000000 -39.000000,224.000000 11.000000,298.000000 11.000000C417.000000 11.000000,521.000000 -87.000000,521.000000 -216.000000C521.000000 -343.000000,423.000000 -442.000000,309.000000 -442.000000C231.000000 -442.000000,188.000000 -395.000000,172.000000 -377.000000M175.000000 -114.000000L175.000000 -320.000000C175.000000 -339.000000,175.000000 -340.000000,186.000000 -356.000000C225.000000 -412.000000,280.000000 -420.000000,304.000000 -420.000000C349.000000 -420.000000,385.000000 -394.000000,409.000000 -356.000000C435.000000 -315.000000,438.000000 -258.000000,438.000000 -217.000000C438.000000 -180.000000,436.000000 -120.000000,407.000000 -75.000000C386.000000 -44.000000,348.000000 -11.000000,294.000000 -11.000000C249.000000 -11.000000,213.000000 -35.000000,189.000000 -72.000000C175.000000 -93.000000,175.000000 -96.000000,175.000000 -114.000000"></path>
    </g>
    <g transform="scale(0.009963,0.009963)" id="GLYPHcmr10_99">
      <path style="fill-rule: evenodd;" d="M117.000000 -218.000000C117.000000 -381.000000,199.000000 -423.000000,252.000000 -423.000000C261.000000 -423.000000,324.000000 -422.000000,359.000000 -386.000000C318.000000 -383.000000,312.000000 -353.000000,312.000000 -340.000000C312.000000 -314.000000,330.000000 -294.000000,358.000000 -294.000000C384.000000 -294.000000,404.000000 -311.000000,404.000000 -341.000000C404.000000 -409.000000,328.000000 -448.000000,251.000000 -448.000000C126.000000 -448.000000,34.000000 -340.000000,34.000000 -216.000000C34.000000 -88.000000,133.000000 11.000000,249.000000 11.000000C383.000000 11.000000,415.000000 -109.000000,415.000000 -119.000000C415.000000 -129.000000,405.000000 -129.000000,402.000000 -129.000000C393.000000 -129.000000,391.000000 -125.000000,389.000000 -119.000000C360.000000 -26.000000,295.000000 -14.000000,258.000000 -14.000000C205.000000 -14.000000,117.000000 -57.000000,117.000000 -218.000000"></path>
    </g>
    <g transform="scale(0.009963,0.009963)" id="GLYPHcmr10_100">
      <path style="fill-rule: evenodd;" d="M380.000000 -55.000000L380.000000 11.000000L527.000000 -0.000000L527.000000 -31.000000C457.000000 -31.000000,449.000000 -38.000000,449.000000 -87.000000L449.000000 -694.000000L305.000000 -683.000000L305.000000 -652.000000C375.000000 -652.000000,383.000000 -645.000000,383.000000 -596.000000L383.000000 -380.000000C354.000000 -416.000000,311.000000 -442.000000,257.000000 -442.000000C139.000000 -442.000000,34.000000 -344.000000,34.000000 -215.000000C34.000000 -88.000000,132.000000 11.000000,246.000000 11.000000C310.000000 11.000000,355.000000 -23.000000,380.000000 -55.000000M380.000000 -323.000000L380.000000 -118.000000C380.000000 -100.000000,380.000000 -98.000000,369.000000 -81.000000C339.000000 -33.000000,294.000000 -11.000000,251.000000 -11.000000C206.000000 -11.000000,170.000000 -37.000000,146.000000 -75.000000C120.000000 -116.000000,117.000000 -173.000000,117.000000 -214.000000C117.000000 -251.000000,119.000000 -311.000000,148.000000 -356.000000C169.000000 -387.000000,207.000000 -420.000000,261.000000 -420.000000C296.000000 -420.000000,338.000000 -405.000000,369.000000 -360.000000C380.000000 -343.000000,380.000000 -341.000000,380.000000 -323.000000"></path>
    </g>
    <g transform="scale(0.009963,0.009963)" id="GLYPHcmr10_101">
      <path style="fill-rule: evenodd;" d="M112.000000 -252.000000C118.000000 -401.000000,202.000000 -426.000000,236.000000 -426.000000C339.000000 -426.000000,349.000000 -291.000000,349.000000 -252.000000M111.000000 -231.000000L390.000000 -231.000000C412.000000 -231.000000,415.000000 -231.000000,415.000000 -252.000000C415.000000 -351.000000,361.000000 -448.000000,236.000000 -448.000000C120.000000 -448.000000,28.000000 -345.000000,28.000000 -220.000000C28.000000 -86.000000,133.000000 11.000000,248.000000 11.000000C370.000000 11.000000,415.000000 -100.000000,415.000000 -119.000000C415.000000 -129.000000,407.000000 -131.000000,402.000000 -131.000000C393.000000 -131.000000,391.000000 -125.000000,389.000000 -117.000000C354.000000 -14.000000,264.000000 -14.000000,254.000000 -14.000000C204.000000 -14.000000,164.000000 -44.000000,141.000000 -81.000000C111.000000 -129.000000,111.000000 -195.000000,111.000000 -231.000000"></path>
    </g>
    <g transform="scale(0.009963,0.009963)" id="GLYPHcmr10_105">
      <path style="fill-rule: evenodd;" d="M177.000000 -442.000000L37.000000 -431.000000L37.000000 -400.000000C102.000000 -400.000000,111.000000 -394.000000,111.000000 -345.000000L111.000000 -76.000000C111.000000 -31.000000,100.000000 -31.000000,33.000000 -31.000000L33.000000 -0.000000C65.000000 -1.000000,119.000000 -3.000000,143.000000 -3.000000C178.000000 -3.000000,213.000000 -1.000000,247.000000 -0.000000L247.000000 -31.000000C181.000000 -31.000000,177.000000 -36.000000,177.000000 -75.000000M181.000000 -616.000000C181.000000 -648.000000,156.000000 -669.000000,128.000000 -669.000000C97.000000 -669.000000,75.000000 -642.000000,75.000000 -616.000000C75.000000 -589.000000,97.000000 -563.000000,128.000000 -563.000000C156.000000 -563.000000,181.000000 -584.000000,181.000000 -616.000000"></path>
    </g>
    <g transform="scale(0.009963,0.009963)" id="GLYPHcmr10_108">
      <path style="fill-rule: evenodd;" d="M177.000000 -694.000000L33.000000 -683.000000L33.000000 -652.000000C103.000000 -652.000000,111.000000 -645.000000,111.000000 -596.000000L111.000000 -76.000000C111.000000 -31.000000,100.000000 -31.000000,33.000000 -31.000000L33.000000 -0.000000C66.000000 -1.000000,119.000000 -3.000000,144.000000 -3.000000C169.000000 -3.000000,218.000000 -1.000000,255.000000 -0.000000L255.000000 -31.000000C188.000000 -31.000000,177.000000 -31.000000,177.000000 -76.000000"></path>
    </g>
    <g transform="scale(0.009963,0.009963)" id="GLYPHcmr10_110">
      <path style="fill-rule: evenodd;" d="M110.000000 -344.000000L110.000000 -76.000000C110.000000 -31.000000,99.000000 -31.000000,32.000000 -31.000000L32.000000 -0.000000C67.000000 -1.000000,118.000000 -3.000000,145.000000 -3.000000C171.000000 -3.000000,223.000000 -1.000000,257.000000 -0.000000L257.000000 -31.000000C190.000000 -31.000000,179.000000 -31.000000,179.000000 -76.000000L179.000000 -260.000000C179.000000 -364.000000,250.000000 -420.000000,314.000000 -420.000000C377.000000 -420.000000,388.000000 -366.000000,388.000000 -309.000000L388.000000 -76.000000C388.000000 -31.000000,377.000000 -31.000000,310.000000 -31.000000L310.000000 -0.000000C345.000000 -1.000000,396.000000 -3.000000,423.000000 -3.000000C449.000000 -3.000000,501.000000 -1.000000,535.000000 -0.000000L535.000000 -31.000000C483.000000 -31.000000,458.000000 -31.000000,457.000000 -61.000000L457.000000 -252.000000C457.000000 -338.000000,457.000000 -369.000000,426.000000 -405.000000C412.000000 -422.000000,379.000000 -442.000000,321.000000 -442.000000C248.000000 -442.000000,201.000000 -399.000000,173.000000 -337.000000L173.000000 -442.000000L32.000000 -431.000000L32.000000 -400.000000C102.000000 -400.000000,110.000000 -393.000000,110.000000 -344.000000"></path>
    </g>
    <g transform="scale(0.009963,0.009963)" id="GLYPHcmr10_111">
      <path style="fill-rule: evenodd;" d="M471.000000 -214.000000C471.000000 -342.000000,371.000000 -448.000000,250.000000 -448.000000C125.000000 -448.000000,28.000000 -339.000000,28.000000 -214.000000C28.000000 -85.000000,132.000000 11.000000,249.000000 11.000000C370.000000 11.000000,471.000000 -87.000000,471.000000 -214.000000M250.000000 -14.000000C207.000000 -14.000000,163.000000 -35.000000,136.000000 -81.000000C111.000000 -125.000000,111.000000 -186.000000,111.000000 -222.000000C111.000000 -261.000000,111.000000 -315.000000,135.000000 -359.000000C162.000000 -405.000000,209.000000 -426.000000,249.000000 -426.000000C293.000000 -426.000000,336.000000 -404.000000,362.000000 -361.000000C388.000000 -318.000000,388.000000 -260.000000,388.000000 -222.000000C388.000000 -186.000000,388.000000 -132.000000,366.000000 -88.000000C344.000000 -43.000000,300.000000 -14.000000,250.000000 -14.000000"></path>
    </g>
    <g transform="scale(0.009963,0.009963)" id="GLYPHcmr10_112">
      <path style="fill-rule: evenodd;" d="M172.000000 -376.000000L172.000000 -442.000000L28.000000 -431.000000L28.000000 -400.000000C99.000000 -400.000000,106.000000 -394.000000,106.000000 -350.000000L106.000000 118.000000C106.000000 163.000000,95.000000 163.000000,28.000000 163.000000L28.000000 194.000000C62.000000 193.000000,114.000000 191.000000,140.000000 191.000000C167.000000 191.000000,218.000000 193.000000,253.000000 194.000000L253.000000 163.000000C186.000000 163.000000,175.000000 163.000000,175.000000 118.000000L175.000000 -50.000000L175.000000 -59.000000C180.000000 -43.000000,222.000000 11.000000,298.000000 11.000000C417.000000 11.000000,521.000000 -87.000000,521.000000 -216.000000C521.000000 -343.000000,424.000000 -442.000000,312.000000 -442.000000C234.000000 -442.000000,192.000000 -398.000000,172.000000 -376.000000M175.000000 -114.000000L175.000000 -337.000000C204.000000 -388.000000,253.000000 -417.000000,304.000000 -417.000000C377.000000 -417.000000,438.000000 -329.000000,438.000000 -216.000000C438.000000 -95.000000,368.000000 -11.000000,294.000000 -11.000000C254.000000 -11.000000,216.000000 -31.000000,189.000000 -72.000000C175.000000 -93.000000,175.000000 -94.000000,175.000000 -114.000000"></path>
    </g>
    <g transform="scale(0.009963,0.009963)" id="GLYPHcmr10_114">
      <path style="fill-rule: evenodd;" d="M167.000000 -332.000000L167.000000 -442.000000L28.000000 -431.000000L28.000000 -400.000000C98.000000 -400.000000,106.000000 -393.000000,106.000000 -344.000000L106.000000 -76.000000C106.000000 -31.000000,95.000000 -31.000000,28.000000 -31.000000L28.000000 -0.000000C67.000000 -1.000000,114.000000 -3.000000,142.000000 -3.000000C182.000000 -3.000000,229.000000 -3.000000,269.000000 -0.000000L269.000000 -31.000000L248.000000 -31.000000C174.000000 -31.000000,172.000000 -42.000000,172.000000 -78.000000L172.000000 -232.000000C172.000000 -331.000000,214.000000 -420.000000,290.000000 -420.000000C297.000000 -420.000000,299.000000 -420.000000,301.000000 -419.000000C298.000000 -418.000000,278.000000 -406.000000,278.000000 -380.000000C278.000000 -352.000000,299.000000 -337.000000,321.000000 -337.000000C339.000000 -337.000000,364.000000 -349.000000,364.000000 -381.000000C364.000000 -413.000000,333.000000 -442.000000,290.000000 -442.000000C217.000000 -442.000000,181.000000 -375.000000,167.000000 -332.000000"></path>
    </g>
    <g transform="scale(0.009963,0.009963)" id="GLYPHcmr10_115">
      <path style="fill-rule: evenodd;" d="M208.000000 -194.000000C230.000000 -190.000000,312.000000 -174.000000,312.000000 -102.000000C312.000000 -51.000000,277.000000 -11.000000,199.000000 -11.000000C115.000000 -11.000000,79.000000 -68.000000,60.000000 -153.000000C57.000000 -166.000000,56.000000 -170.000000,46.000000 -170.000000C33.000000 -170.000000,33.000000 -163.000000,33.000000 -145.000000L33.000000 -13.000000C33.000000 4.000000,33.000000 11.000000,44.000000 11.000000C49.000000 11.000000,50.000000 10.000000,69.000000 -9.000000C71.000000 -11.000000,71.000000 -13.000000,89.000000 -32.000000C133.000000 10.000000,178.000000 11.000000,199.000000 11.000000C314.000000 11.000000,360.000000 -56.000000,360.000000 -128.000000C360.000000 -181.000000,330.000000 -211.000000,318.000000 -223.000000C285.000000 -255.000000,246.000000 -263.000000,204.000000 -271.000000C148.000000 -282.000000,81.000000 -295.000000,81.000000 -353.000000C81.000000 -388.000000,107.000000 -429.000000,193.000000 -429.000000C303.000000 -429.000000,308.000000 -339.000000,310.000000 -308.000000C311.000000 -299.000000,320.000000 -299.000000,322.000000 -299.000000C335.000000 -299.000000,335.000000 -304.000000,335.000000 -323.000000L335.000000 -424.000000C335.000000 -441.000000,335.000000 -448.000000,324.000000 -448.000000C319.000000 -448.000000,317.000000 -448.000000,304.000000 -436.000000C301.000000 -432.000000,291.000000 -423.000000,287.000000 -420.000000C249.000000 -448.000000,208.000000 -448.000000,193.000000 -448.000000C71.000000 -448.000000,33.000000 -381.000000,33.000000 -325.000000C33.000000 -290.000000,49.000000 -262.000000,76.000000 -240.000000C108.000000 -214.000000,136.000000 -208.000000,208.000000 -194.000000"></path>
    </g>
    <g transform="scale(0.009963,0.009963)" id="GLYPHcmr10_116">
      <path style="fill-rule: evenodd;" d="M173.000000 -400.000000L316.000000 -400.000000L316.000000 -431.000000L173.000000 -431.000000L173.000000 -615.000000L148.000000 -615.000000C147.000000 -533.000000,117.000000 -426.000000,19.000000 -422.000000L19.000000 -400.000000L104.000000 -400.000000L104.000000 -124.000000C104.000000 -1.000000,197.000000 11.000000,233.000000 11.000000C304.000000 11.000000,332.000000 -60.000000,332.000000 -124.000000L332.000000 -181.000000L307.000000 -181.000000L307.000000 -126.000000C307.000000 -52.000000,277.000000 -14.000000,240.000000 -14.000000C173.000000 -14.000000,173.000000 -105.000000,173.000000 -122.000000"></path>
    </g>
    <g transform="scale(0.009963,0.009963)" id="GLYPHcmr10_121">
      <path style="fill-rule: evenodd;" d="M415.000000 -336.000000C441.000000 -399.000000,492.000000 -400.000000,508.000000 -400.000000L508.000000 -431.000000C485.000000 -429.000000,456.000000 -428.000000,433.000000 -428.000000C415.000000 -428.000000,368.000000 -430.000000,346.000000 -431.000000L346.000000 -400.000000C377.000000 -399.000000,393.000000 -382.000000,393.000000 -357.000000C393.000000 -347.000000,392.000000 -345.000000,387.000000 -333.000000L286.000000 -87.000000L175.000000 -356.000000C171.000000 -366.000000,169.000000 -370.000000,169.000000 -374.000000C169.000000 -400.000000,206.000000 -400.000000,225.000000 -400.000000L225.000000 -431.000000C199.000000 -430.000000,133.000000 -428.000000,116.000000 -428.000000C89.000000 -428.000000,49.000000 -429.000000,19.000000 -431.000000L19.000000 -400.000000C67.000000 -400.000000,86.000000 -400.000000,100.000000 -365.000000L250.000000 -0.000000C245.000000 13.000000,231.000000 46.000000,225.000000 59.000000C203.000000 114.000000,175.000000 183.000000,111.000000 183.000000C106.000000 183.000000,83.000000 183.000000,64.000000 165.000000C95.000000 161.000000,103.000000 139.000000,103.000000 123.000000C103.000000 97.000000,84.000000 81.000000,61.000000 81.000000C41.000000 81.000000,19.000000 94.000000,19.000000 124.000000C19.000000 169.000000,61.000000 205.000000,111.000000 205.000000C174.000000 205.000000,215.000000 148.000000,239.000000 91.000000"></path>
    </g>
    <g transform="scale(0.009963,0.009963)" id="GLYPHcmr10_122">
      <path style="fill-rule: evenodd;" d="M390.000000 -401.000000C399.000000 -412.000000,399.000000 -414.000000,399.000000 -418.000000C399.000000 -431.000000,391.000000 -431.000000,373.000000 -431.000000L53.000000 -431.000000L42.000000 -270.000000L67.000000 -270.000000C73.000000 -372.000000,92.000000 -409.000000,202.000000 -409.000000L316.000000 -409.000000L37.000000 -32.000000C28.000000 -21.000000,28.000000 -19.000000,28.000000 -14.000000C28.000000 -0.000000,35.000000 -0.000000,54.000000 -0.000000L384.000000 -0.000000L401.000000 -187.000000L376.000000 -187.000000C367.000000 -69.000000,346.000000 -25.000000,230.000000 -25.000000L112.000000 -25.000000"></path>
    </g>
  </defs>
  <path d="M0.000000 -0.000000L120.000000 -0.000000L120.000000 192.000000L0.000000 192.000000Z" style="stroke:rgb(0.000000%,0.000000%,0.000000%); stroke-width: 0.500000;stroke-linecap: round;stroke-linejoin: round;stroke-miterlimit: 10.000000;fill: none;"></path>
  <path d="M0.000000 192.000000L0.000000 240.000000L120.000000 240.000000L120.000000 192.000000" style="stroke:rgb(0.000000%,0.000000%,0.000000%); stroke-width: 0.500000;stroke-linecap: round;stroke-linejoin: round;stroke-miterlimit: 10.000000;fill: none;"></path>
  <path d="M88.000000 240.000000L88.000000 228.000000L120.000000 228.000000" style="stroke:rgb(0.000000%,0.000000%,0.000000%); stroke-width: 0.500000;stroke-linecap: round;stroke-linejoin: round;stroke-miterlimit: 10.000000;fill: none;"></path>
  <g transform="translate(122.099991 235.962814)" style="fill: rgb(0.000000%,0.000000%,0.000000%);">
    <use xlink:href="#GLYPHcmr10_80"></use>
  </g>
  <g transform="translate(128.603394 235.962814)" style="fill: rgb(0.000000%,0.000000%,0.000000%);">
    <use xlink:href="#GLYPHcmr10_111"></use>
    <use xlink:href="#GLYPHcmr10_115" x="5.000095"></use>
    <use xlink:href="#GLYPHcmr10_116" x="8.944609"></use>
    <use xlink:href="#GLYPHcmr10_115" x="12.833572"></use>
    <use xlink:href="#GLYPHcmr10_99" x="16.778087"></use>
    <use xlink:href="#GLYPHcmr10_114" x="21.222615"></use>
    <use xlink:href="#GLYPHcmr10_105" x="25.139362"></use>
    <use xlink:href="#GLYPHcmr10_112" x="27.917192"></use>
    <use xlink:href="#GLYPHcmr10_116" x="33.472853"></use>
    <use xlink:href="#GLYPHcmr10_83" x="37.361816"></use>
    <use xlink:href="#GLYPHcmr10_105" x="42.917477"></use>
    <use xlink:href="#GLYPHcmr10_122" x="45.695307"></use>
    <use xlink:href="#GLYPHcmr10_101" x="50.139836"></use>
  </g>
  <g transform="translate(122.099991 249.571991)" style="fill: rgb(0.000000%,0.000000%,0.000000%);">
    <use xlink:href="#GLYPHcmr10_40"></use>
    <use xlink:href="#GLYPHcmr10_108" x="3.888963"></use>
    <use xlink:href="#GLYPHcmr10_97" x="6.666793"></use>
    <use xlink:href="#GLYPHcmr10_115" x="11.666888"></use>
    <use xlink:href="#GLYPHcmr10_116" x="15.611403"></use>
  </g>
  <g transform="translate(144.848083 249.571991)" style="fill: rgb(0.000000%,0.000000%,0.000000%);">
    <use xlink:href="#GLYPHcmr10_111"></use>
    <use xlink:href="#GLYPHcmr10_110" x="5.000095"></use>
    <use xlink:href="#GLYPHcmr10_101" x="10.555756"></use>
  </g>
  <g transform="translate(163.112885 249.571991)" style="fill: rgb(0.000000%,0.000000%,0.000000%);">
    <use xlink:href="#GLYPHcmr10_98"></use>
  </g>
  <g transform="translate(168.370987 249.571991)" style="fill: rgb(0.000000%,0.000000%,0.000000%);">
    <use xlink:href="#GLYPHcmr10_121"></use>
    <use xlink:href="#GLYPHcmr10_116" x="5.277886"></use>
    <use xlink:href="#GLYPHcmr10_101" x="9.166848"></use>
    <use xlink:href="#GLYPHcmr10_41" x="13.611377"></use>
  </g>
  <g transform="translate(38.137497 218.435303)" style="fill: rgb(0.000000%,0.000000%,0.000000%);">
    <use xlink:href="#GLYPHcmr10_80"></use>
  </g>
  <g transform="translate(44.640900 218.435303)" style="fill: rgb(0.000000%,0.000000%,0.000000%);">
    <use xlink:href="#GLYPHcmr10_111"></use>
    <use xlink:href="#GLYPHcmr10_115" x="5.000095"></use>
    <use xlink:href="#GLYPHcmr10_116" x="8.944609"></use>
    <use xlink:href="#GLYPHcmr10_115" x="12.833572"></use>
    <use xlink:href="#GLYPHcmr10_99" x="16.778087"></use>
    <use xlink:href="#GLYPHcmr10_114" x="21.222615"></use>
    <use xlink:href="#GLYPHcmr10_105" x="25.139362"></use>
    <use xlink:href="#GLYPHcmr10_112" x="27.917192"></use>
    <use xlink:href="#GLYPHcmr10_116" x="33.472853"></use>
  </g>
  <path d="M0.000000 48.000000L120.000000 48.000000" style="stroke:rgb(0.000000%,0.000000%,0.000000%); stroke-width: 0.500000;stroke-linecap: round;stroke-linejoin: round;stroke-miterlimit: 10.000000;fill: none;"></path>
  <path d="M0.000000 96.000000L120.000000 96.000000" style="stroke:rgb(0.000000%,0.000000%,0.000000%); stroke-width: 0.500000;stroke-linecap: round;stroke-linejoin: round;stroke-miterlimit: 10.000000;fill: none;"></path>
  <path d="M0.000000 144.000000L120.000000 144.000000" style="stroke:rgb(0.000000%,0.000000%,0.000000%); stroke-width: 0.500000;stroke-linecap: round;stroke-linejoin: round;stroke-miterlimit: 10.000000;fill: none;"></path>
  <g transform="translate(25.947052 26.490662)" style="fill: rgb(0.000000%,0.000000%,0.000000%);">
    <use xlink:href="#GLYPHcmr10_83"></use>
    <use xlink:href="#GLYPHcmr10_116" x="5.555661"></use>
    <use xlink:href="#GLYPHcmr10_114" x="9.444624"></use>
    <use xlink:href="#GLYPHcmr10_105" x="13.361370"></use>
    <use xlink:href="#GLYPHcmr10_112" x="16.139200"></use>
  </g>
  <g transform="translate(47.837250 26.490662)" style="fill: rgb(0.000000%,0.000000%,0.000000%);">
    <use xlink:href="#GLYPHcmr10_101"></use>
    <use xlink:href="#GLYPHcmr10_77" x="4.444529"></use>
    <use xlink:href="#GLYPHcmr10_101" x="13.611362"></use>
    <use xlink:href="#GLYPHcmr10_116" x="18.055890"></use>
    <use xlink:href="#GLYPHcmr10_97" x="21.944853"></use>
    <use xlink:href="#GLYPHcmr10_100" x="26.944948"></use>
    <use xlink:href="#GLYPHcmr10_97" x="32.500609"></use>
    <use xlink:href="#GLYPHcmr10_116" x="37.500703"></use>
    <use xlink:href="#GLYPHcmr10_97" x="41.389666"></use>
  </g>
  <g transform="translate(25.947052 74.490662)" style="fill: rgb(0.000000%,0.000000%,0.000000%);">
    <use xlink:href="#GLYPHcmr10_83"></use>
    <use xlink:href="#GLYPHcmr10_116" x="5.555661"></use>
    <use xlink:href="#GLYPHcmr10_114" x="9.444624"></use>
    <use xlink:href="#GLYPHcmr10_105" x="13.361370"></use>
    <use xlink:href="#GLYPHcmr10_112" x="16.139200"></use>
  </g>
  <g transform="translate(47.837250 74.490662)" style="fill: rgb(0.000000%,0.000000%,0.000000%);">
    <use xlink:href="#GLYPHcmr10_101"></use>
    <use xlink:href="#GLYPHcmr10_77" x="4.444529"></use>
    <use xlink:href="#GLYPHcmr10_101" x="13.611362"></use>
    <use xlink:href="#GLYPHcmr10_116" x="18.055890"></use>
    <use xlink:href="#GLYPHcmr10_97" x="21.944853"></use>
    <use xlink:href="#GLYPHcmr10_100" x="26.944948"></use>
    <use xlink:href="#GLYPHcmr10_97" x="32.500609"></use>
    <use xlink:href="#GLYPHcmr10_116" x="37.500703"></use>
    <use xlink:href="#GLYPHcmr10_97" x="41.389666"></use>
  </g>
  <g transform="translate(25.947052 122.490662)" style="fill: rgb(0.000000%,0.000000%,0.000000%);">
    <use xlink:href="#GLYPHcmr10_83"></use>
    <use xlink:href="#GLYPHcmr10_116" x="5.555661"></use>
    <use xlink:href="#GLYPHcmr10_114" x="9.444624"></use>
    <use xlink:href="#GLYPHcmr10_105" x="13.361370"></use>
    <use xlink:href="#GLYPHcmr10_112" x="16.139200"></use>
  </g>
  <g transform="translate(47.837250 122.490662)" style="fill: rgb(0.000000%,0.000000%,0.000000%);">
    <use xlink:href="#GLYPHcmr10_101"></use>
    <use xlink:href="#GLYPHcmr10_77" x="4.444529"></use>
    <use xlink:href="#GLYPHcmr10_101" x="13.611362"></use>
    <use xlink:href="#GLYPHcmr10_116" x="18.055890"></use>
    <use xlink:href="#GLYPHcmr10_97" x="21.944853"></use>
    <use xlink:href="#GLYPHcmr10_100" x="26.944948"></use>
    <use xlink:href="#GLYPHcmr10_97" x="32.500609"></use>
    <use xlink:href="#GLYPHcmr10_116" x="37.500703"></use>
    <use xlink:href="#GLYPHcmr10_97" x="41.389666"></use>
  </g>
  <g transform="translate(25.947052 170.490662)" style="fill: rgb(0.000000%,0.000000%,0.000000%);">
    <use xlink:href="#GLYPHcmr10_83"></use>
    <use xlink:href="#GLYPHcmr10_116" x="5.555661"></use>
    <use xlink:href="#GLYPHcmr10_114" x="9.444624"></use>
    <use xlink:href="#GLYPHcmr10_105" x="13.361370"></use>
    <use xlink:href="#GLYPHcmr10_112" x="16.139200"></use>
  </g>
  <g transform="translate(47.837250 170.490662)" style="fill: rgb(0.000000%,0.000000%,0.000000%);">
    <use xlink:href="#GLYPHcmr10_101"></use>
    <use xlink:href="#GLYPHcmr10_77" x="4.444529"></use>
    <use xlink:href="#GLYPHcmr10_101" x="13.611362"></use>
    <use xlink:href="#GLYPHcmr10_116" x="18.055890"></use>
    <use xlink:href="#GLYPHcmr10_97" x="21.944853"></use>
    <use xlink:href="#GLYPHcmr10_100" x="26.944948"></use>
    <use xlink:href="#GLYPHcmr10_97" x="32.500609"></use>
    <use xlink:href="#GLYPHcmr10_116" x="37.500703"></use>
    <use xlink:href="#GLYPHcmr10_97" x="41.389666"></use>
  </g>
</svg>
