<?xml version="1.0" standalone="no"?>
<!DOCTYPE svg PUBLIC "-//W3C//DTD SVG 20010904//EN"
 "http://www.w3.org/TR/2001/REC-SVG-20010904/DTD/svg10.dtd">
<svg version="1.0" xmlns="http://www.w3.org/2000/svg"
 width="1000.000000pt" height="1000.000000pt" viewBox="0 0 1000.000000 1000.000000"
 preserveAspectRatio="xMidYMid meet">
<metadata>
Created by potrace 1.11, written by Peter Selinger 2001-2013
</metadata>
<g transform="translate(0.000000,1000.000000) scale(0.100000,-0.100000)"
fill="#000000" stroke="none">
<path d="M560 9990 c0 -11 20 -56 147 -330 53 -113 104 -217 114 -232 11 -14
19 -29 19 -33 0 -11 56 -87 99 -135 22 -25 43 -53 46 -62 4 -10 11 -18 16 -18
5 0 9 -6 9 -13 0 -13 145 -175 218 -243 17 -17 32 -37 32 -43 0 -7 5 -9 10 -6
6 3 10 -1 10 -9 0 -9 5 -16 10 -16 6 0 10 -5 10 -11 0 -11 57 -69 67 -69 6 0
47 -51 49 -60 0 -3 4 -14 8 -25 5 -11 9 -25 11 -32 4 -12 87 -71 185 -132 143
-88 383 -179 475 -181 28 0 77 -1 110 -2 33 0 71 2 85 6 18 6 21 5 11 -2 -18
-13 -23 -43 -9 -59 7 -9 4 -25 -11 -56 -22 -45 -28 -97 -11 -97 5 0 14 8 19
18 10 16 13 15 35 -10 14 -16 32 -28 40 -28 24 0 35 -31 33 -97 -2 -52 2 -65
22 -87 22 -23 23 -29 13 -63 -6 -21 -16 -69 -22 -108 -6 -38 -32 -155 -57
-259 l-46 -189 22 -16 c33 -25 81 -103 81 -131 0 -14 -25 -95 -55 -179 -63
-175 -76 -235 -52 -244 9 -3 14 -14 11 -24 -5 -22 31 -80 40 -64 4 6 16 11 27
11 11 0 18 4 15 8 -3 5 12 18 33 29 36 19 38 20 34 2 -4 -13 2 -20 23 -25 16
-4 45 -21 66 -38 20 -17 65 -41 100 -54 183 -67 213 -80 216 -96 5 -22 -22
-20 -88 9 -30 13 -57 21 -59 19 -6 -6 -4 -7 104 -52 60 -26 101 -38 103 -32 3
7 11 5 23 -6 25 -22 24 -10 -1 31 -18 29 -19 65 -1 65 3 0 20 -24 38 -53 17
-29 46 -70 63 -92 26 -32 31 -35 25 -15 -4 14 -12 32 -19 40 -14 19 -36 58
-36 65 0 3 9 0 20 -7 11 -7 20 -22 20 -34 0 -25 8 -33 72 -68 39 -22 143 -56
170 -56 18 0 6 21 -17 30 -14 5 -25 14 -25 19 0 17 34 29 55 20 46 -18 57 -4
102 129 32 96 82 202 95 202 6 0 8 -10 5 -22 -28 -122 -35 -164 -30 -192 6
-38 -12 -193 -29 -246 -6 -19 -24 -50 -40 -68 -43 -50 -168 -253 -168 -274 0
-4 -11 -45 -24 -90 -13 -46 -27 -107 -31 -135 -4 -29 -10 -53 -15 -53 -4 0
-11 -30 -15 -66 -5 -50 -10 -64 -21 -60 -18 7 -18 -8 0 -37 22 -36 29 -77 12
-77 -13 0 -76 -63 -76 -76 0 -3 6 -12 14 -19 11 -12 19 -8 52 26 21 21 42 39
47 39 17 0 68 -42 64 -54 -2 -6 -21 -13 -42 -16 -36 -5 -44 -12 -98 -89 -53
-76 -58 -87 -55 -130 3 -39 7 -46 25 -49 14 -2 26 4 33 17 6 11 33 48 61 82
38 45 50 67 46 85 -2 13 2 29 9 35 8 6 15 9 15 5 2 -9 9 -63 11 -88 1 -13 -1
-39 -4 -58 l-7 -35 16 35 c8 19 16 37 18 39 7 7 84 -34 85 -45 0 -22 -78 -232
-109 -289 -29 -54 -33 -51 -15 13 11 40 -11 23 -30 -23 -11 -25 -23 -45 -29
-45 -5 0 -6 8 -2 18 4 9 8 42 10 72 2 30 1 44 -1 30 -3 -14 -9 -29 -14 -35 -4
-5 -10 -27 -14 -47 -9 -52 -22 -48 -18 5 3 23 1 39 -2 36 -16 -15 -35 -123
-33 -186 2 -70 -14 -123 -38 -123 -6 0 -22 11 -35 25 -35 37 -44 30 -15 -12
46 -69 75 -132 75 -161 0 -16 22 -81 49 -143 26 -63 54 -132 62 -154 8 -22 24
-60 37 -85 13 -25 20 -36 16 -25 -3 11 -21 65 -39 120 -19 55 -40 114 -48 130
-8 17 -18 41 -22 55 -13 42 22 5 36 -38 6 -20 15 -41 19 -47 10 -12 84 -206
115 -300 35 -104 56 -209 62 -308 7 -96 22 -117 25 -34 5 121 -9 221 -43 317
-19 51 -20 64 -9 194 6 76 8 141 6 143 -12 12 -36 -76 -36 -131 -1 -50 -3 -58
-12 -42 -6 11 -13 44 -14 73 -3 51 -8 63 -48 103 -17 17 -18 25 -8 57 10 36
41 283 48 383 4 64 31 158 54 190 11 16 20 34 20 42 0 7 14 36 31 63 17 28 28
41 25 30 -37 -132 -76 -349 -76 -415 1 -48 2 -53 14 -38 7 10 17 18 22 18 5 0
22 16 37 35 16 20 32 33 36 31 12 -8 104 19 133 38 14 9 30 16 34 14 5 -1 32
10 59 24 28 14 66 28 86 32 37 7 72 -1 64 -13 -5 -9 87 -48 317 -133 89 -33
261 -132 290 -166 13 -16 31 -31 41 -35 10 -4 16 -11 13 -16 -6 -9 39 -21 78
-21 12 0 55 -24 96 -54 68 -49 144 -133 240 -264 21 -28 25 -30 31 -15 4 11
-4 39 -23 73 -17 30 -36 66 -44 80 -7 14 -41 56 -74 94 -34 38 -66 79 -71 92
-10 29 -29 32 -22 4 4 -17 1 -19 -27 -15 -18 2 -38 9 -43 14 -6 6 -35 11 -63
11 -47 0 -55 3 -74 30 -20 28 -21 33 -6 54 8 13 29 29 46 34 28 10 32 9 40
-14 6 -14 10 -33 10 -43 0 -29 18 -38 65 -31 27 4 48 3 55 -4 8 -8 10 -7 5 5
-4 11 8 22 46 40 29 13 64 33 78 44 13 11 30 20 35 21 6 1 23 7 39 13 29 11
35 26 15 35 -7 3 13 4 45 1 32 -3 67 -10 79 -16 24 -13 20 -15 153 104 94 83
124 98 81 42 -15 -19 -24 -35 -21 -35 4 0 -9 -19 -28 -42 -19 -24 -37 -57 -40
-74 -5 -28 -2 -34 38 -63 47 -34 81 -41 71 -16 -4 11 11 26 50 51 44 28 74 39
133 47 90 12 192 12 278 0 89 -13 92 -27 4 -19 -66 7 -73 6 -62 -8 11 -13 7
-16 -24 -22 -70 -13 -149 -108 -180 -217 l-17 -58 65 -97 c128 -194 187 -310
247 -486 l37 -110 8 177 c8 207 22 284 25 137 2 -94 2 -95 17 -60 11 26 14 58
10 130 -7 143 -34 337 -56 410 -10 36 -22 83 -26 105 l-6 40 21 -33 c11 -18
20 -39 20 -47 0 -8 5 -15 10 -15 6 0 10 -7 10 -15 0 -8 5 -15 10 -15 6 0 10
-10 10 -23 0 -12 9 -47 21 -77 12 -30 23 -65 26 -78 4 -16 9 -20 18 -12 9 8
11 4 7 -15 -2 -14 0 -25 5 -25 13 0 61 -197 93 -380 10 -63 24 -140 30 -169 5
-30 13 -149 17 -263 3 -114 10 -208 14 -208 19 0 58 217 75 424 3 38 10 64 14
60 14 -14 25 -145 13 -152 -13 -9 -26 -195 -13 -187 6 3 10 18 11 33 0 15 4
36 9 47 7 16 9 10 10 -25 l2 -45 14 55 c8 30 21 102 29 160 8 58 21 125 29
150 26 81 39 236 33 374 -8 168 -21 234 -63 318 -19 37 -34 73 -34 80 1 17 40
-30 40 -48 0 -8 5 -14 10 -14 6 0 -1 23 -15 50 -14 28 -30 48 -35 45 -5 -3
-12 0 -16 6 -4 8 -3 9 4 5 7 -4 12 -2 12 3 0 6 -6 11 -14 11 -8 0 -18 5 -22
12 -5 8 -2 9 9 5 29 -11 18 7 -22 36 -38 28 -53 64 -22 51 9 -3 25 -8 36 -11
26 -6 107 -48 171 -89 54 -35 80 -71 144 -204 49 -101 65 -151 94 -309 14 -74
28 -136 30 -138 2 -2 7 20 10 50 5 38 1 83 -13 153 -25 121 -49 187 -119 328
-29 60 -56 122 -59 138 -3 16 -8 26 -11 24 -11 -11 -31 29 -20 41 6 8 2 25
-14 55 -13 24 -26 45 -29 48 -3 3 -12 23 -19 44 -11 35 -14 37 -25 23 -17 -23
-21 -22 -35 13 -7 17 -15 30 -19 30 -4 0 -14 12 -23 28 -9 15 -46 58 -82 96
-36 38 -64 72 -61 74 2 3 10 0 17 -5 7 -6 26 -13 41 -17 27 -6 169 -105 182
-126 3 -5 11 -10 16 -10 6 0 7 5 4 10 -8 14 8 13 22 -1 6 -6 9 -18 6 -25 -3
-9 0 -12 9 -9 15 6 88 -58 130 -115 40 -55 104 -120 116 -120 20 0 14 29 -24
116 -19 46 -33 88 -29 94 9 15 25 2 25 -20 0 -10 7 -21 16 -24 8 -3 38 -53 65
-111 28 -58 53 -105 56 -105 2 0 2 19 -2 42 -7 39 -6 41 10 25 41 -41 51 2 21
91 -13 37 -37 109 -54 161 -18 51 -32 100 -32 107 0 8 -4 14 -9 14 -5 0 -11
18 -15 39 -3 22 -14 46 -24 53 -20 15 -48 75 -39 85 4 3 20 0 37 -7 23 -9 30
-19 30 -39 0 -15 13 -48 30 -74 22 -36 36 -47 55 -47 30 0 32 17 9 63 -21 40
-74 102 -74 86 0 -7 -10 -4 -22 8 -13 11 -38 28 -55 37 -42 21 -41 34 2 69
l35 28 55 -48 c31 -26 77 -79 104 -118 55 -78 97 -128 88 -104 -3 9 -2 22 3
29 10 16 -85 216 -101 212 -17 -4 -79 18 -79 29 0 10 29 46 111 134 59 64 105
135 88 135 -6 0 -51 -41 -100 -91 -48 -50 -93 -88 -99 -84 -20 12 -9 54 25 95
33 40 35 46 34 113 l-1 72 -9 -57 c-13 -87 -39 -126 -52 -76 -4 13 0 29 10 40
24 27 10 95 -44 212 -53 114 -72 146 -84 146 -4 0 5 -28 21 -62 15 -35 31 -76
34 -91 10 -41 -10 -25 -25 21 -17 51 -111 231 -163 311 -23 36 -75 100 -114
142 -40 42 -72 83 -72 91 0 7 -22 36 -50 63 -27 27 -50 53 -50 57 0 4 15 8 33
8 39 0 103 -42 136 -89 12 -17 32 -36 43 -42 17 -9 25 -7 46 16 24 26 24 29
18 141 -3 63 -11 122 -16 132 -10 19 -47 144 -52 179 -6 43 17 24 34 -28 10
-29 34 -86 53 -126 19 -40 35 -77 35 -82 0 -16 39 -23 73 -13 17 6 49 13 69
17 53 8 426 128 468 150 19 10 79 51 132 91 85 65 100 73 128 68 24 -5 36 -2
55 16 41 38 26 83 -15 48 -8 -7 -6 -3 3 9 30 35 9 82 -69 163 -38 38 -72 79
-76 90 l-8 21 28 -19 c15 -11 37 -32 49 -46 13 -14 27 -26 33 -26 17 0 11 48
-11 101 -16 36 -20 61 -16 92 5 34 0 52 -24 97 -17 30 -24 46 -15 36 25 -31
29 -12 11 53 -16 55 -16 61 -1 76 17 17 21 74 18 251 -1 75 1 84 27 115 26 31
30 33 56 21 26 -12 31 -10 94 44 177 152 473 436 644 619 266 285 255 275 301
275 90 1 173 32 236 90 17 15 97 84 153 130 86 72 362 365 436 463 91 122 177
258 240 380 34 64 61 119 61 122 0 3 -875 5 -1945 5 l-1945 0 -6 -27 c-3 -16
-10 -41 -15 -58 -5 -16 -17 -86 -28 -155 -11 -69 -25 -159 -31 -200 -7 -41
-22 -97 -36 -125 -19 -39 -25 -74 -30 -164 -5 -86 -11 -117 -24 -130 -9 -9
-22 -45 -28 -81 -10 -54 -10 -73 2 -113 15 -47 15 -49 -26 -160 -51 -141 -94
-328 -134 -586 -7 -52 -21 -117 -28 -145 -43 -151 -63 -264 -91 -521 -8 -77
-19 -162 -25 -190 -41 -217 -52 -491 -21 -529 11 -14 11 -16 -2 -16 -10 0 -17
-15 -22 -47 -8 -55 -9 -269 0 -282 9 -16 -7 -41 -26 -41 -34 0 -99 -42 -137
-88 l-37 -45 0 -154 c0 -140 -2 -154 -18 -159 -24 -8 -70 36 -96 91 -32 68
-60 245 -63 395 -2 152 11 348 23 356 5 3 9 15 9 27 0 17 -2 19 -10 7 -13 -20
-17 -13 -23 45 l-6 50 17 -35 16 -35 4 31 c2 18 -4 59 -12 92 -20 77 -21 266
-2 375 35 195 39 226 31 278 -4 30 -9 137 -11 239 -4 184 7 296 34 347 6 11
11 36 10 55 -1 18 4 43 10 54 16 31 89 94 110 95 9 0 32 18 51 40 30 35 31 39
13 39 -24 0 -174 -99 -221 -146 -18 -19 -37 -34 -41 -34 -5 0 -15 -6 -22 -12
-33 -31 -112 -80 -226 -139 -67 -35 -138 -72 -157 -82 -33 -18 -35 -18 -102 9
-65 26 -227 119 -267 153 -28 25 -43 61 -50 126 -5 55 -4 58 9 41 8 -11 15
-29 15 -41 0 -12 4 -25 8 -31 5 -5 14 -28 21 -51 8 -30 16 -41 26 -37 18 7 20
35 3 52 -9 9 -8 12 5 12 10 0 17 6 15 14 -2 8 2 15 7 15 6 1 10 -6 10 -13 0
-8 3 -17 7 -21 10 -10 20 33 11 47 -8 13 -9 18 -12 38 0 6 -6 10 -12 10 -6 0
-9 -9 -6 -20 4 -17 1 -19 -18 -16 -13 3 -26 -1 -28 -7 -3 -7 -8 -3 -12 8 -3
11 -11 28 -16 37 -24 45 -3 48 95 14 l69 -24 36 22 c20 12 49 27 64 34 26 11
27 11 17 -8 -5 -10 -20 -26 -32 -34 -12 -9 -20 -18 -17 -20 2 -2 42 20 89 49
47 30 99 61 115 69 17 9 44 28 60 42 17 15 41 34 55 43 25 16 45 32 104 83 17
15 34 28 39 28 11 0 8 45 -5 58 -9 9 -8 17 2 37 11 21 11 27 -3 43 -15 17 -15
19 0 35 30 30 5 30 -34 0 -50 -39 -337 -235 -366 -249 -109 -56 -145 -67 -205
-60 -69 8 -200 52 -317 106 -44 20 -86 35 -92 33 -6 -2 -18 6 -27 19 -32 49
-67 198 -46 198 5 0 10 -17 11 -37 l1 -38 12 35 13 35 7 -29 c6 -26 8 -27 20
-11 6 9 24 18 39 18 38 3 41 23 6 36 -34 12 -30 38 7 47 13 4 29 14 34 23 9
14 12 13 29 -8 21 -27 28 -29 121 -38 36 -3 67 -10 70 -14 3 -4 30 -15 60 -23
30 -8 62 -17 70 -20 8 -3 30 3 48 14 25 15 32 25 27 39 -4 14 0 21 17 27 12 3
39 23 59 43 20 20 69 65 108 100 48 44 71 72 71 87 0 13 4 26 10 29 6 3 10 11
10 16 0 17 -40 0 -127 -52 -46 -27 -123 -65 -172 -84 -85 -33 -95 -34 -228
-36 -128 -1 -145 1 -214 26 -41 15 -88 27 -106 27 -29 0 -36 5 -64 56 -18 31
-42 68 -55 82 -20 22 -24 37 -26 105 -3 134 7 253 24 272 8 10 18 26 22 37 5
13 12 17 31 12 19 -5 27 -1 37 16 7 13 13 25 14 28 0 3 6 16 12 30 l11 25 0
-26 c1 -15 -5 -32 -13 -39 -20 -15 -9 -42 14 -35 10 3 20 0 23 -8 3 -8 19 -17
36 -20 22 -5 31 -12 31 -27 0 -11 -7 -20 -16 -20 -13 0 -11 -5 6 -31 26 -35
68 -55 84 -39 5 5 16 10 24 10 7 0 34 9 59 21 43 20 57 20 124 5 22 -5 34 2
72 41 26 26 54 63 63 82 10 20 40 84 69 144 l52 107 -259 0 c-163 0 -258 -4
-258 -10 0 -10 -13 -27 -64 -83 l-28 -32 15 31 c9 18 28 46 43 63 l26 31
-1591 0 c-1022 0 -1591 -3 -1591 -10z m3260 -294 c0 -2 -9 -6 -20 -9 -11 -3
-20 -1 -20 4 0 5 9 9 20 9 11 0 20 -2 20 -4z m1048 -1436 c-2 -5 -32 -40 -67
-79 -74 -82 -131 -124 -154 -115 -25 9 -21 17 25 43 23 13 73 57 111 97 38 41
74 71 79 68 5 -3 8 -10 6 -14z m-265 -205 c-11 -8 -40 -17 -64 -20 l-44 -5 55
20 c67 23 81 25 53 5z m812 -448 c11 -2 -5 -5 -35 -6 -51 -1 -53 0 -30 13 14
7 30 9 35 5 6 -4 19 -9 30 -12z m226 9 c70 -21 179 -77 173 -88 -4 -6 2 -8 15
-3 14 4 23 2 27 -8 4 -13 41 -28 99 -40 11 -3 28 -8 38 -12 12 -5 17 -2 17 9
0 9 4 16 10 16 5 0 8 -26 7 -59 -2 -66 3 -66 -71 -4 -21 18 -41 32 -45 31 -3
0 -8 1 -11 2 -3 1 -22 4 -43 5 -21 2 -75 20 -120 40 -45 20 -110 48 -144 62
-35 14 -63 31 -63 39 0 8 6 11 15 8 8 -4 15 -1 15 5 0 15 27 14 81 -3z m-982
-10 c22 -26 1 -43 -76 -60 -81 -18 -106 -15 -54 7 17 7 29 16 26 18 -3 3 8 4
23 1 18 -2 33 2 41 12 12 14 11 16 -5 10 -18 -5 -18 -5 0 10 24 20 30 20 45 2z
m104 -20 c4 -10 -4 -15 -28 -18 -21 -2 -36 1 -39 8 -3 8 3 11 19 8 13 -2 27 0
30 6 8 13 12 13 18 -4z m44 -8 c-3 -8 -6 -5 -6 6 -1 11 2 17 5 13 3 -3 4 -12
1 -19z m-328 -47 c17 -11 -14 -32 -72 -51 -55 -17 -55 -7 -1 29 52 34 53 34
73 22z m2148 -43 c18 -7 33 -16 33 -20 0 -5 -17 -1 -37 7 -61 26 -58 35 4 13z
m-2416 -48 c-13 -11 -28 -20 -35 -20 -6 0 3 9 19 20 38 25 47 25 16 0z m2789
-90 c17 -9 47 -50 37 -50 -2 0 -21 14 -42 30 -37 29 -33 41 5 20z m-3155 -100
c3 -5 1 -10 -4 -10 -6 0 -11 5 -11 10 0 6 2 10 4 10 3 0 8 -4 11 -10z m3316
-37 c10 -12 5 -11 -18 6 -18 12 -33 24 -33 27 0 9 37 -15 51 -33z m109 -87
c22 -27 -5 -17 -31 10 -21 24 -22 26 -3 16 11 -6 26 -18 34 -26z m-4304 -1
c-11 -8 -24 -15 -30 -15 -5 0 -1 7 10 15 10 8 24 14 29 14 6 0 1 -6 -9 -14z
m-57 -14 c18 -12 8 -26 -39 -52 -38 -22 -56 -47 -25 -35 36 14 10 -16 -47 -53
-75 -48 -170 -121 -181 -138 -4 -7 -15 -13 -22 -13 -8 0 -15 -4 -15 -8 0 -14
-70 -82 -84 -82 -7 0 -22 8 -34 18 l-21 19 62 40 c34 22 70 43 79 46 25 9 169
119 164 125 -3 2 -18 -4 -33 -14 -47 -31 -206 -114 -211 -110 -2 3 16 17 40
32 65 41 132 86 243 163 55 38 102 70 105 70 3 0 11 -3 19 -8z m3292 -368
c-10 -17 -10 -16 -11 3 0 23 13 41 18 25 2 -6 -1 -18 -7 -28z m-3621 -8 c-7
-9 -15 -13 -17 -11 -7 7 7 26 19 26 6 0 6 -6 -2 -15z m3597 -67 c-3 -7 -5 -2
-5 12 0 14 2 19 5 13 2 -7 2 -19 0 -25z m-27 -139 c-11 -76 -20 -100 -20 -57
0 33 22 140 27 134 3 -2 0 -37 -7 -77z m49 -69 c0 -42 -1 -44 -14 -26 -15 20
-21 87 -8 100 11 11 22 -24 22 -74z m-2367 -28 c-10 -30 -23 7 -16 44 l8 39 6
-35 c3 -19 4 -41 2 -48z m-54 -50 l26 -23 -56 -52 c-63 -58 -121 -135 -112
-149 3 -5 38 22 77 60 109 105 148 137 194 160 41 21 123 40 123 29 0 -4 -32
-46 -71 -94 -39 -48 -77 -101 -86 -117 -16 -31 -128 -192 -167 -241 -25 -31
-96 -196 -168 -390 -40 -106 -58 -143 -58 -117 0 7 9 38 20 69 11 31 18 59 15
61 -3 3 -5 0 -5 -7 0 -7 -5 -9 -12 -4 -13 8 -18 9 -38 12 -5 0 -7 16 -4 34 l5
32 -20 -24 c-29 -33 -27 -6 5 55 14 27 29 61 34 77 13 42 -11 34 -41 -16 -41
-65 -50 -85 -86 -187 -33 -95 -33 -95 -28 -40 11 125 129 392 242 549 17 24
17 24 -5 12 -52 -28 -239 -357 -268 -471 -10 -38 -21 -67 -25 -64 -4 2 -1 28
7 57 7 28 14 53 14 55 0 1 -9 -2 -21 -8 -11 -7 -18 -18 -15 -26 3 -7 -1 -17
-8 -21 -16 -9 -27 -71 -13 -76 5 -1 5 -18 -1 -41 -6 -20 -8 -44 -5 -52 3 -8 0
-14 -5 -14 -10 0 -15 78 -14 186 1 45 71 324 90 358 47 82 104 161 172 237 96
106 104 114 178 172 34 27 62 53 62 58 0 11 34 -8 68 -39z m2632 -28 l0 -47
-32 25 c-17 13 -38 34 -46 46 -14 22 -13 22 32 22 l46 0 0 -46z m-3165 -3 c-7
-13 -62 -15 -69 -3 -3 5 8 9 25 10 17 0 34 3 37 6 9 9 15 -2 7 -13z m1945 -1
c0 -5 -5 -10 -11 -10 -5 0 -7 5 -4 10 3 6 8 10 11 10 2 0 4 -4 4 -10z m1055
-75 c50 -51 138 -152 188 -219 34 -45 87 -143 87 -161 0 -4 6 -21 14 -38 13
-29 40 -91 68 -157 5 -14 16 -38 24 -55 20 -44 64 -203 64 -231 0 -40 -17 -27
-29 24 -20 82 -30 100 -57 100 -19 0 -24 -4 -19 -17 4 -9 9 -28 12 -43 5 -24
2 -28 -16 -28 -17 0 -29 16 -56 75 -36 81 -55 95 -55 43 l-1 -33 -24 30 c-16
20 -25 25 -25 14 0 -8 4 -19 9 -25 16 -17 101 -191 101 -208 0 -9 -4 -16 -10
-16 -5 0 -10 6 -10 14 0 8 -6 21 -13 28 -7 7 -22 36 -32 63 -18 47 -68 147
-85 170 -5 6 -67 126 -139 269 -73 142 -145 278 -161 302 -17 23 -30 47 -30
52 0 6 -6 12 -12 15 -7 2 -9 8 -5 13 4 5 11 4 15 -2 21 -31 123 -56 137 -34 3
6 15 10 26 10 21 0 26 15 7 26 -6 4 -16 0 -23 -9 -7 -10 -22 -17 -33 -17 -29
0 -18 28 17 42 24 9 25 10 9 22 -10 7 -18 18 -18 25 0 6 -5 11 -11 11 -5 0 -7
5 -4 11 8 11 24 -1 90 -66z m-245 51 c0 -3 -4 -8 -10 -11 -5 -3 -10 -1 -10 4
0 6 5 11 10 11 6 0 10 -2 10 -4z m-565 -349 c6 -5 -1 -4 -15 3 -66 31 -90 45
-90 53 0 8 86 -38 105 -56z m-768 45 c-4 -6 -47 -27 -187 -92 -20 -9 -66 -32
-120 -60 -44 -23 -45 -23 -26 -1 11 11 42 32 70 45 28 13 94 45 146 70 90 43
127 56 117 38z m593 -40 c0 -15 -2 -15 -10 -2 -13 20 -13 33 0 25 6 -3 10 -14
10 -23z m-584 -47 c-11 -8 -27 -15 -35 -14 -9 0 -2 7 14 14 39 18 45 18 21 0z
m244 -22 c44 -23 49 -28 43 -51 -4 -17 -2 -23 6 -18 6 4 11 16 11 27 0 29 48
26 59 -3 10 -26 45 -60 79 -77 12 -7 22 -21 22 -34 l0 -22 18 22 c12 16 30 23
62 25 50 3 48 -4 34 111 -4 31 -4 57 -1 57 11 0 127 -72 151 -95 19 -17 26
-37 32 -84 4 -36 11 -58 16 -55 6 4 8 30 4 65 -6 53 -5 59 12 59 10 0 23 5 28
10 32 32 93 -58 97 -141 2 -49 0 -54 -20 -57 -21 -3 -33 -21 -15 -23 37 -2 92
-10 114 -15 17 -3 28 -1 28 5 0 6 -12 13 -27 16 -53 11 -58 18 -58 81 0 54 2
59 23 62 15 2 30 -6 48 -27 14 -17 31 -31 38 -31 7 0 18 -10 25 -22 l12 -23
-5 23 c-4 23 17 32 29 12 4 -6 15 -8 26 -5 44 14 122 -67 105 -110 -6 -17 -26
-21 -26 -5 0 6 -7 10 -16 10 -13 0 -11 -6 9 -24 22 -20 27 -33 25 -66 -1 -38
-3 -41 -27 -38 -24 3 -26 7 -29 58 -4 83 -7 86 -48 46 -27 -26 -34 -40 -29
-55 3 -12 14 -21 23 -21 13 0 14 -2 3 -9 -7 -5 -9 -11 -4 -14 11 -7 -3 -116
-17 -130 -4 -4 -30 1 -58 12 -28 11 -54 16 -57 11 -3 -4 -38 -6 -78 -3 -49 4
-97 0 -152 -12 -44 -9 -101 -18 -127 -19 -25 -1 -53 -7 -60 -14 -14 -11 -84
-16 -225 -13 -73 1 -84 6 -61 29 24 24 -2 23 -45 -2 -24 -14 -55 -26 -69 -26
-14 0 -28 -7 -32 -15 -9 -24 -97 -20 -130 6 -14 11 -26 27 -26 36 0 11 -10 6
-32 -16 -27 -26 -38 -31 -63 -25 -16 3 -34 13 -40 21 -33 51 -39 54 -72 42
-18 -6 -33 -15 -33 -20 0 -13 -38 -11 -68 5 -65 33 -93 36 -121 15 -22 -16
-33 -18 -73 -10 -45 8 -76 -1 -98 -29 -3 -4 -15 -9 -27 -12 -22 -6 -22 -5 -9
26 63 144 64 146 97 146 24 0 29 -4 26 -17 -15 -54 -17 -74 -8 -68 13 7 31 73
25 88 -5 15 62 37 111 37 34 0 105 23 105 34 0 7 -138 -1 -167 -10 -18 -5 -23
-2 -23 11 0 15 -6 17 -40 11 -39 -6 -40 -6 -40 23 0 22 12 42 45 75 25 24 55
48 68 52 12 4 58 29 103 55 77 46 124 67 76 33 -23 -16 -29 -34 -11 -34 15 0
69 39 69 50 0 5 -7 7 -15 4 -8 -4 -15 -2 -15 3 0 5 24 20 53 32 28 13 60 27
69 32 23 12 31 11 23 0 -3 -6 11 -15 32 -20 47 -14 63 -14 63 -1 0 5 30 25 68
45 77 40 102 40 182 -2z m-655 -101 c-6 -5 -42 -34 -82 -65 -39 -31 -75 -61
-78 -67 -3 -5 -11 -10 -17 -10 -25 0 151 149 177 150 6 0 6 -3 0 -8z m1487
-52 c6 0 5 -6 -2 -15 -10 -12 -16 -13 -26 -4 -19 16 -18 33 2 25 9 -3 20 -6
26 -6z m962 -165 c5 -22 4 -26 -4 -15 -5 8 -10 24 -10 34 0 26 6 18 14 -19z
m-2544 -60 c0 -2 -9 -9 -20 -15 -24 -13 -50 -2 -29 11 15 9 49 12 49 4z m-854
-142 c-10 -26 -18 -8 -9 23 5 21 8 24 11 11 2 -10 1 -25 -2 -34z m2529 36 c4
-5 9 -63 11 -127 8 -211 22 -238 23 -46 1 151 3 173 18 178 9 4 20 3 24 -1 11
-11 29 -148 36 -268 l5 -100 -28 -10 c-38 -14 -71 -8 -79 13 -10 23 -27 189
-29 290 -2 76 3 97 19 71z m-1898 -41 c-3 -13 -9 -46 -13 -74 l-6 -51 53 -16
54 -16 -51 3 c-28 2 -59 8 -70 14 -26 14 -60 52 -46 52 6 0 14 -4 17 -10 3 -5
10 -10 14 -10 10 0 31 70 31 104 0 14 5 26 11 26 7 0 9 -9 6 -22z m2037 -59
c-11 -18 -24 3 -24 39 l1 37 14 -34 c8 -18 12 -37 9 -42z m706 16 c0 -19 -4
-35 -10 -35 -5 0 -10 16 -10 35 0 19 5 35 10 35 6 0 10 -16 10 -35z m-130 -55
c0 -5 -4 -10 -10 -10 -5 0 -10 5 -10 10 0 6 5 10 10 10 6 0 10 -4 10 -10z
m120 -28 c0 -5 -11 -19 -25 -32 -29 -27 -32 -21 -9 15 16 24 34 33 34 17z
m-100 -34 c0 -19 -2 -20 -10 -8 -13 19 -13 30 0 30 6 0 10 -10 10 -22z m24
-37 c7 -10 -18 -34 -27 -25 -7 8 3 34 13 34 5 0 11 -4 14 -9z m-3218 -37 c-4
-9 -9 -15 -11 -12 -3 3 -3 13 1 22 4 9 9 15 11 12 3 -3 3 -13 -1 -22z m1619
-13 c-9 -16 -25 -3 -18 15 4 10 9 12 15 6 6 -6 7 -15 3 -21z m-70 -26 c-48
-16 -93 -19 -79 -6 11 11 46 18 89 19 28 0 27 -1 -10 -13z m1900 5 c3 -5 1
-10 -4 -10 -6 0 -11 5 -11 10 0 6 2 10 4 10 3 0 8 -4 11 -10z m-1635 -126 l35
-13 -30 0 c-39 -1 -105 17 -105 29 0 11 48 3 100 -16z m-190 -94 c0 -5 -4 -10
-10 -10 -5 0 -10 5 -10 10 0 6 5 10 10 10 6 0 10 -4 10 -10z m-92 -36 c-29
-15 -128 -32 -116 -20 8 10 96 34 123 35 17 0 15 -2 -7 -15z m1623 -11 c13
-16 12 -17 -3 -4 -10 7 -18 15 -18 17 0 8 8 3 21 -13z m-36 -13 c3 -5 1 -10
-4 -10 -6 0 -11 5 -11 10 0 6 2 10 4 10 3 0 8 -4 11 -10z m40 -60 c3 -5 1 -10
-4 -10 -6 0 -11 5 -11 10 0 6 2 10 4 10 3 0 8 -4 11 -10z m-2648 -36 c-3 -3
-12 -4 -19 -1 -8 3 -5 6 6 6 11 1 17 -2 13 -5z m63 -4 c0 -5 -8 -10 -18 -10
-10 0 -22 -4 -27 -9 -6 -5 -21 -12 -35 -16 -18 -5 -14 1 15 19 42 27 65 32 65
16z m1820 -88 c0 -5 -19 -17 -42 -27 -24 -11 -55 -27 -70 -37 -27 -19 -68 -24
-68 -9 0 8 119 66 155 74 11 3 21 5 23 6 1 0 2 -3 2 -7z m-1000 -7 c0 -2 -10
-10 -22 -16 -21 -11 -22 -11 -9 4 13 16 31 23 31 12z m1629 -90 c11 -22 21
-44 21 -50 0 -12 -79 116 -80 129 0 13 35 -34 59 -79z m-1523 9 c-4 -14 -9
-24 -12 -21 -3 2 -2 17 2 31 3 15 9 25 11 22 3 -3 2 -17 -1 -32z m-1612 -47
c-4 -26 -11 -47 -15 -47 -12 0 -11 47 1 55 6 3 10 16 10 27 0 12 2 19 5 16 3
-2 2 -26 -1 -51z m2866 17 c0 -2 -9 0 -20 6 -11 6 -20 13 -20 16 0 2 9 0 20
-6 11 -6 20 -13 20 -16z m-2750 6 c0 -5 -5 -10 -11 -10 -5 0 -7 5 -4 10 3 6 8
10 11 10 2 0 4 -4 4 -10z m1445 -20 c-28 -12 -65 -12 -65 0 0 6 19 10 43 9 32
0 37 -2 22 -9z m45 0 c0 -5 -2 -10 -4 -10 -3 0 -8 5 -11 10 -3 6 -1 10 4 10 6
0 11 -4 11 -10z m-446 -61 c22 -20 -5 -19 -31 1 -28 22 -28 22 -3 15 14 -4 29
-11 34 -16z m-1184 -19 c0 -5 -4 -10 -10 -10 -5 0 -10 5 -10 10 0 6 5 10 10
10 6 0 10 -4 10 -10z m-7 -127 c3 -24 2 -43 -3 -43 -12 0 -20 27 -20 68 0 47
16 30 23 -25z"/>
<path d="M2790 7005 c-7 -8 -8 -15 -2 -15 5 0 15 7 22 15 7 8 8 15 2 15 -5 0
-15 -7 -22 -15z"/>
<path d="M3965 6380 c-3 -5 -13 -10 -22 -10 -36 0 -76 -57 -47 -67 14 -5 70
41 85 68 10 20 -4 28 -16 9z"/>
<path d="M3641 6300 c-32 -40 -32 -40 -8 -40 22 0 41 16 76 63 12 15 11 17
-11 17 -17 0 -35 -13 -57 -40z"/>
<path d="M3522 6191 c-60 -69 -107 -136 -117 -171 l-8 -25 22 19 c12 11 31 36
43 55 12 20 27 43 35 51 48 55 89 118 81 126 -2 2 -27 -23 -56 -55z"/>
<path d="M3602 6129 c-7 -12 -11 -24 -7 -27 7 -8 25 17 25 36 0 17 -3 15 -18
-9z"/>
<path d="M3576 5743 c-20 -53 -34 -98 -31 -101 7 -8 8 -7 47 101 20 53 32 97
28 97 -4 0 -24 -43 -44 -97z"/>
<path d="M3531 5614 c0 -11 3 -14 6 -6 3 7 2 16 -1 19 -3 4 -6 -2 -5 -13z"/>
<path d="M6575 5560 c3 -5 8 -10 11 -10 2 0 4 5 4 10 0 6 -5 10 -11 10 -5 0
-7 -4 -4 -10z"/>
<path d="M5221 5734 c-1 -22 -25 -39 -41 -29 -5 3 -11 1 -15 -5 -3 -5 2 -10
13 -10 10 0 29 -11 42 -25 13 -14 27 -25 31 -25 8 0 2 33 -11 65 -5 11 -11 27
-13 35 -4 10 -6 7 -6 -6z"/>
<path d="M4645 5693 c-50 -13 -70 -24 -56 -33 9 -5 20 -3 29 7 9 8 24 12 36 9
12 -3 35 -6 52 -6 22 0 34 -7 43 -22 11 -22 11 -22 6 -1 -5 20 -1 22 50 28 31
4 74 5 96 2 22 -3 39 -1 39 4 0 6 -48 9 -117 8 -65 -2 -127 0 -138 3 -11 3
-29 3 -40 1z"/>
<path d="M4968 5683 c7 -3 16 -2 19 1 4 3 -2 6 -13 5 -11 0 -14 -3 -6 -6z"/>
<path d="M5320 5675 c7 -8 16 -12 21 -9 13 8 1 24 -18 24 -13 0 -13 -3 -3 -15z"/>
<path d="M5455 5661 c-8 -27 -4 -33 14 -22 10 6 11 14 3 26 -9 17 -10 16 -17
-4z"/>
<path d="M4420 5648 c0 -11 -10 -18 -32 -20 -17 -2 -34 -9 -36 -17 -4 -11 1
-12 19 -7 13 5 49 12 79 16 56 8 124 29 117 36 -2 2 -24 -2 -48 -9 -51 -16
-78 -14 -90 5 -7 10 -9 9 -9 -4z"/>
<path d="M4853 5628 c1 -13 7 -26 12 -30 15 -12 77 -10 70 2 -3 6 -15 10 -26
10 -10 0 -24 9 -31 20 -17 27 -28 25 -25 -2z"/>
<path d="M5010 5630 c0 -10 27 -20 55 -20 12 0 28 -7 36 -16 10 -12 24 -14 73
-9 88 10 107 27 26 22 -49 -3 -72 1 -95 14 -29 17 -95 23 -95 9z"/>
<path d="M5330 5630 c-12 -8 -10 -10 8 -10 13 0 20 4 17 10 -7 12 -6 12 -25 0z"/>
<path d="M5767 5633 c-13 -12 -7 -33 8 -33 8 0 15 9 15 20 0 20 -11 26 -23 13z"/>
<path d="M5370 5610 c0 -8 65 -50 77 -50 4 0 -4 11 -16 24 -23 25 -61 41 -61
26z"/>
<path d="M4210 5585 c-16 -19 0 -19 26 0 16 12 16 14 3 15 -9 0 -22 -7 -29
-15z"/>
<path d="M4408 5592 c-64 -5 -42 -18 32 -20 39 0 68 3 65 7 -6 11 -50 17 -97
13z"/>
<path d="M4950 5518 c0 -96 16 -111 22 -20 4 48 1 71 -8 82 -12 12 -14 3 -14
-62z"/>
<path d="M5592 5569 c5 -16 32 -30 103 -52 54 -18 65 -16 45 8 -7 9 -15 13
-18 10 -3 -3 -12 1 -21 9 -9 7 -29 16 -46 19 -16 3 -38 9 -49 13 -14 5 -17 3
-14 -7z"/>
<path d="M5457 5548 c-7 -19 11 -60 23 -53 16 10 12 65 -4 65 -8 0 -16 -6 -19
-12z"/>
<path d="M4458 5503 c-3 -27 -1 -57 3 -68 6 -14 8 -7 9 25 0 25 3 55 6 68 4
12 2 22 -4 22 -5 0 -12 -21 -14 -47z"/>
<path d="M4646 5422 c-4 -24 -5 -46 -2 -49 12 -12 17 6 14 48 l-3 44 -9 -43z"/>
<path d="M5260 5438 c0 -9 5 -20 10 -23 13 -8 13 5 0 25 -8 13 -10 13 -10 -2z"/>
<path d="M4267 5423 c-4 -3 -7 -11 -7 -17 0 -6 5 -5 12 2 6 6 9 14 7 17 -3 3
-9 2 -12 -2z"/>
<path d="M5026 9992 c-2 -4 -21 -73 -41 -152 -21 -80 -41 -149 -45 -155 -14
-18 -22 -74 -12 -90 14 -26 58 86 98 249 19 77 34 144 34 148 0 10 -27 10 -34
0z"/>
<path d="M5438 9968 c-9 -9 -22 -36 -28 -60 -7 -24 -16 -48 -20 -53 -5 -6 -13
-53 -19 -105 -6 -52 -17 -153 -26 -225 -17 -146 -19 -207 -7 -187 7 9 13 8 27
-8 17 -19 18 -25 6 -53 -7 -18 -15 -41 -17 -52 -6 -27 38 -109 60 -113 16 -3
18 2 13 35 -2 21 -13 59 -23 85 l-18 47 23 25 c20 21 26 44 37 143 8 65 16
168 19 228 2 61 7 147 11 192 5 61 3 86 -7 100 -13 18 -15 18 -31 1z"/>
<path d="M3537 9660 c3 -11 10 -20 15 -20 5 0 6 -16 2 -36 -5 -28 -4 -35 5
-29 7 4 10 13 7 20 -3 8 0 15 5 17 6 2 3 17 -6 36 -18 35 -36 43 -28 12z"/>
<path d="M3948 9608 c-2 -6 -25 -13 -51 -14 -51 -3 -92 -29 -64 -40 9 -3 25 0
37 6 24 13 40 1 40 -30 0 -23 38 -52 56 -42 12 7 10 12 -11 32 -30 28 -32 55
-5 72 21 13 27 28 11 28 -5 0 -11 -5 -13 -12z"/>
<path d="M3786 9561 c-3 -5 1 -14 9 -21 13 -10 15 -9 15 9 0 21 -14 28 -24 12z"/>
<path d="M5392 9070 c0 -14 2 -19 5 -12 2 6 2 18 0 25 -3 6 -5 1 -5 -13z"/>
<path d="M5326 9035 c-8 -9 -13 -22 -9 -30 3 -9 -7 -31 -22 -50 -14 -20 -25
-43 -23 -53 3 -13 14 -6 51 32 46 48 54 67 41 100 -8 20 -18 20 -38 1z"/>
<path d="M7465 6980 c4 -6 11 -8 16 -5 14 9 11 15 -7 15 -8 0 -12 -5 -9 -10z"/>
<path d="M2414 6641 c9 -14 66 -34 74 -27 10 11 -28 36 -56 36 -13 0 -21 -4
-18 -9z"/>
<path d="M6538 6115 c5 -11 12 -27 15 -35 5 -13 6 -13 6 1 1 8 -6 24 -15 35
-15 19 -15 19 -6 -1z"/>
<path d="M6706 5818 c11 -39 83 -184 84 -170 0 7 -8 32 -19 55 -10 23 -28 63
-40 90 -22 49 -37 64 -25 25z"/>
<path d="M2953 5670 c14 -11 28 -20 32 -20 4 0 -4 9 -18 20 -14 11 -28 20 -32
20 -4 0 4 -9 18 -20z"/>
<path d="M3010 5632 c0 -4 10 -13 23 -21 22 -14 22 -14 3 8 -20 22 -26 25 -26
13z"/>
<path d="M3070 5572 c0 -17 30 -62 41 -62 5 0 5 8 2 18 -10 24 -43 58 -43 44z"/>
<path d="M3028 5218 c-6 -18 14 -78 24 -72 9 6 11 45 2 68 -7 19 -21 21 -26 4z"/>
<path d="M3326 5049 c-10 -51 -6 -57 9 -14 17 48 17 45 6 45 -5 0 -11 -14 -15
-31z"/>
<path d="M6715 5070 c3 -5 8 -10 11 -10 2 0 4 5 4 10 0 6 -5 10 -11 10 -5 0
-7 -4 -4 -10z"/>
<path d="M3280 5045 c0 -8 2 -15 4 -15 2 0 6 7 10 15 3 8 1 15 -4 15 -6 0 -10
-7 -10 -15z"/>
<path d="M3268 5014 c-5 -4 -8 -16 -8 -28 0 -14 3 -17 11 -9 6 6 9 19 7 28 -1
9 -6 13 -10 9z"/>
<path d="M3246 4943 c-6 -14 -5 -15 5 -6 7 7 10 15 7 18 -3 3 -9 -2 -12 -12z"/>
<path d="M6296 4739 c19 -28 34 -55 34 -60 0 -16 18 -10 24 8 4 10 4 14 0 11
-7 -8 -34 16 -34 30 0 13 -40 62 -50 62 -5 0 7 -23 26 -51z"/>
<path d="M5149 4524 c-14 -37 -6 -39 15 -4 10 17 13 30 6 30 -6 0 -15 -12 -21
-26z"/>
<path d="M3447 4472 c-32 -33 -36 -54 -6 -26 20 18 44 54 36 54 -2 0 -15 -13
-30 -28z"/>
<path d="M5026 4435 c-35 -35 -76 -108 -98 -173 -22 -68 -23 -93 -3 -86 12 5
15 -2 16 -32 1 -30 5 -18 19 48 10 48 30 113 45 145 62 133 64 141 21 98z"/>
<path d="M6694 4420 c2 -19 9 -66 15 -105 6 -38 11 -164 12 -280 1 -139 4
-196 10 -170 21 101 -2 527 -31 573 -9 14 -10 10 -6 -18z"/>
<path d="M6334 4401 c20 -22 26 -25 26 -13 0 4 -10 13 -22 21 -23 14 -23 14
-4 -8z"/>
<path d="M6835 4359 c-7 -22 13 -101 24 -95 9 6 0 116 -9 116 -5 0 -12 -10
-15 -21z"/>
<path d="M5190 4335 c-44 -46 -34 -53 14 -11 20 19 33 37 28 40 -5 3 -24 -10
-42 -29z"/>
<path d="M5495 4322 c-27 -41 -45 -112 -28 -112 6 0 13 18 16 39 2 21 15 53
28 70 12 17 20 33 17 37 -4 3 -18 -12 -33 -34z"/>
<path d="M3623 4305 c-19 -21 -16 -27 7 -13 11 7 20 16 20 20 0 12 -14 9 -27
-7z"/>
<path d="M3817 4311 c-27 -4 -51 -12 -55 -18 -4 -5 -18 -16 -31 -23 -19 -10
-25 -10 -32 1 -6 11 -27 4 -93 -30 -51 -26 -92 -41 -102 -37 -13 5 -14 9 -4
21 7 9 10 18 6 22 -15 16 -37 -50 -51 -160 -9 -66 0 -87 36 -87 31 0 80 -21
143 -59 19 -12 37 -18 40 -12 3 5 0 12 -6 14 -7 3 -1 6 15 6 15 1 36 -8 47
-19 24 -24 53 -26 75 -4 15 16 16 16 13 -1 -2 -14 11 -24 57 -42 33 -13 76
-26 95 -28 19 -3 51 -7 71 -11 20 -3 84 -6 142 -6 119 -1 118 2 59 -75 -24
-33 -25 -33 -107 -33 -70 0 -106 7 -230 45 -81 25 -151 42 -156 39 -5 -3 -9
-16 -9 -29 0 -27 18 -34 140 -55 36 -7 80 -18 98 -26 18 -7 55 -16 83 -20 27
-4 49 -10 49 -14 0 -4 -32 -10 -72 -14 -42 -4 -79 -13 -89 -22 -12 -11 -58
-19 -150 -27 -126 -12 -134 -14 -137 -34 -2 -17 3 -24 20 -27 59 -12 194 -27
258 -28 38 -1 70 -4 70 -8 0 -3 -33 -54 -73 -112 -40 -58 -86 -137 -101 -175
-41 -102 -38 -98 -92 -98 l-49 0 1 35 c0 19 1 60 2 90 3 84 -1 130 -10 130 -4
0 -8 7 -8 15 0 8 5 15 12 15 7 0 6 6 -4 18 -9 9 -13 23 -11 30 7 19 -14 14
-22 -5 -13 -34 -22 -284 -10 -303 4 -7 -1 -13 -14 -17 -24 -6 -28 -28 -6 -37
11 -4 15 -22 15 -68 0 -35 8 -128 16 -208 9 -80 19 -172 22 -205 4 -33 11 -59
16 -58 15 3 35 81 41 158 5 60 18 146 53 349 5 23 15 43 27 50 26 15 46 42 67
91 9 22 17 34 17 28 2 -35 21 -2 55 97 38 109 87 191 122 204 10 4 62 11 117
16 106 10 133 19 101 31 -12 5 -3 6 23 4 24 -2 42 -1 41 3 -1 4 3 16 8 27 7
12 9 41 5 70 -5 43 -9 50 -26 47 -79 -13 -85 -14 -85 -2 0 17 56 70 74 70 20
0 20 1 2 36 -8 15 -13 31 -10 35 7 11 -17 100 -33 124 -7 11 -13 26 -13 33 0
8 -13 33 -28 56 -41 61 -44 66 -35 66 5 0 25 -21 44 -47 59 -81 139 -198 142
-207 2 -6 49 2 108 17 57 15 121 27 142 27 20 0 37 5 37 11 0 7 -23 10 -65 7
-47 -2 -65 0 -65 10 0 6 8 12 18 13 9 1 37 2 62 4 25 1 70 -4 101 -11 67 -17
69 -17 69 -5 0 5 -19 15 -42 23 -44 14 -64 39 -87 110 -16 47 -83 124 -117
132 -15 4 -28 5 -31 3 -2 -3 7 -33 21 -68 31 -76 32 -79 5 -50 l-21 22 -23
-25 -23 -25 -41 21 c-22 11 -41 23 -42 27 -6 45 -4 51 11 51 21 0 30 9 24 24
-3 8 -26 11 -72 10 -52 -3 -88 3 -157 26 -155 49 -312 84 -275 60 11 -7 4 -10
-25 -10 -29 0 -36 3 -25 10 18 11 5 11 -73 1z m723 -230 c0 -12 -20 -25 -27
-18 -7 7 6 27 18 27 5 0 9 -4 9 -9z m70 -33 c0 -10 -49 -58 -60 -58 -6 0 -10
-4 -10 -10 0 -5 -9 -10 -21 -10 -27 0 -16 15 33 46 35 22 39 29 33 52 -6 26
-6 26 9 7 8 -11 16 -23 16 -27z m-70 -92 c0 -3 -4 -8 -10 -11 -5 -3 -10 -1
-10 4 0 6 5 11 10 11 6 0 10 -2 10 -4z"/>
<path d="M3297 4275 c-10 -21 -16 -40 -13 -42 8 -8 38 46 34 63 -2 11 -9 5
-21 -21z"/>
<path d="M4325 4260 c-3 -5 1 -10 9 -10 8 0 18 5 21 10 3 6 -1 10 -9 10 -8 0
-18 -4 -21 -10z"/>
<path d="M4860 4186 c0 -8 5 -18 10 -21 6 -3 10 1 10 9 0 8 -4 18 -10 21 -5 3
-10 -1 -10 -9z"/>
<path d="M5885 4129 c-4 -6 -5 -12 -2 -15 2 -3 7 2 10 11 7 17 1 20 -8 4z"/>
<path d="M5905 3993 c6 -58 11 -84 13 -63 5 45 -7 160 -16 160 -4 0 -3 -44 3
-97z"/>
<path d="M5971 3954 c0 -11 3 -14 6 -6 3 7 2 16 -1 19 -3 4 -6 -2 -5 -13z"/>
<path d="M3470 3934 c0 -14 4 -23 9 -20 5 3 7 15 4 26 -7 28 -13 25 -13 -6z"/>
<path d="M3535 3930 c-14 -22 7 -71 33 -81 15 -6 34 -17 44 -25 9 -9 24 -14
35 -12 13 2 17 -3 16 -19 -4 -30 3 -29 38 8 30 32 30 49 1 49 -24 0 -122 58
-129 75 -6 17 -29 20 -38 5z"/>
<path d="M3457 3813 c-6 -63 9 -193 22 -193 3 0 5 58 3 130 -2 71 -7 130 -11
130 -5 0 -11 -30 -14 -67z"/>
<path d="M4423 3863 c-10 -3 -10 -9 0 -26 7 -12 12 -23 12 -24 0 -1 16 2 35 7
24 5 28 8 13 9 -13 1 -23 5 -23 11 0 9 17 15 70 23 14 3 -2 5 -35 5 -33 0 -65
-2 -72 -5z"/>
<path d="M3550 3819 c0 -12 25 -22 41 -17 6 2 0 9 -15 16 -16 7 -26 8 -26 1z"/>
<path d="M4540 3821 c0 -6 5 -13 10 -16 6 -3 10 -16 10 -28 -1 -20 -2 -21 -14
-5 -10 14 -19 16 -46 8 -18 -5 -37 -7 -41 -4 -5 3 -9 2 -9 -3 0 -11 29 -151
40 -188 4 -16 11 -57 15 -89 4 -33 10 -54 14 -48 4 7 4 42 0 79 -7 71 -2 130
12 139 4 2 6 11 3 18 -3 8 -1 17 5 21 14 8 14 -20 0 -46 -5 -11 -9 -30 -7 -42
6 -36 38 47 40 105 2 49 18 75 38 63 5 -3 10 1 10 10 0 11 -6 14 -25 9 -19 -5
-25 -2 -25 10 0 9 -7 16 -15 16 -8 0 -15 -4 -15 -9z"/>
<path d="M5919 3713 c-3 -32 -2 -92 2 -133 5 -65 6 -57 7 58 2 137 -3 174 -9
75z"/>
<path d="M3551 3671 c-23 -32 -26 -41 -11 -41 13 0 50 41 50 57 0 22 -17 15
-39 -16z"/>
<path d="M3853 3686 c0 -9 10 -19 21 -22 22 -7 107 -7 114 0 8 9 -38 26 -85
32 -41 5 -50 3 -50 -10z"/>
<path d="M3486 3571 c-29 -46 -35 -71 -12 -52 18 15 50 81 43 88 -3 3 -17 -13
-31 -36z"/>
<path d="M4338 3489 c-9 -14 -58 -54 -110 -89 -51 -35 -133 -95 -182 -132 -49
-37 -103 -74 -119 -82 -28 -13 -34 -24 -59 -118 -22 -80 -29 -136 -34 -251 -7
-152 11 -473 28 -483 4 -3 8 -41 8 -84 0 -118 16 -105 24 19 8 138 31 241 94
421 91 262 128 339 204 426 25 29 50 63 53 75 4 12 29 55 55 96 48 73 67 140
58 203 l-3 24 -17 -25z"/>
<path d="M3387 3393 c-4 -3 -7 -13 -7 -22 1 -13 3 -13 11 2 11 19 8 33 -4 20z"/>
<path d="M6212 3140 c0 -14 2 -19 5 -12 2 6 2 18 0 25 -3 6 -5 1 -5 -13z"/>
<path d="M2950 2831 c0 -10 -10 -14 -62 -25 -30 -7 -38 -33 -13 -42 16 -7 117
-156 144 -214 9 -19 24 -44 33 -54 10 -10 16 -22 14 -25 -3 -3 3 -15 11 -26
12 -15 14 -16 10 -3 -3 9 -9 33 -13 54 -9 47 11 39 21 -9 9 -40 65 -210 72
-217 12 -13 -19 124 -59 250 -24 77 -138 320 -150 320 -4 0 -8 -4 -8 -9z"/>
</g>
</svg>
