<?xml version="1.0" standalone="no"?>
<!DOCTYPE svg PUBLIC "-//W3C//DTD SVG 20010904//EN"
 "http://www.w3.org/TR/2001/REC-SVG-20010904/DTD/svg10.dtd">
<svg version="1.0" xmlns="http://www.w3.org/2000/svg"
 width="260.000000pt" height="260.000000pt" viewBox="0 0 260.000000 260.000000"
 preserveAspectRatio="xMidYMid meet">
<metadata>
Created by potrace 1.14, written by Peter Selinger 2001-2017
</metadata>
<g transform="translate(0.000000,260.000000) scale(0.100000,-0.100000)"
fill="#000000" stroke="none">
<path d="M1752 2330 c-18 -4 -54 -7 -80 -5 -37 1 -65 -6 -129 -37 -90 -42
-105 -46 -96 -23 5 15 -22 55 -38 55 -5 0 -24 -14 -44 -31 -35 -31 -35 -32
-18 -58 48 -74 63 -153 37 -203 -21 -41 -104 -76 -104 -44 0 9 7 12 19 9 23
-6 71 33 71 58 0 10 -9 23 -21 30 l-21 11 21 14 c26 18 27 52 4 61 -10 4 -22
12 -26 20 -10 17 -22 17 -40 -2 -13 -13 -16 -13 -27 0 -17 21 -24 19 -60 -14
-28 -25 -30 -32 -21 -50 7 -11 19 -21 28 -21 11 0 8 -6 -10 -20 -18 -14 -24
-26 -20 -38 10 -26 55 -57 78 -54 15 3 17 1 8 -8 -17 -19 -76 5 -95 38 -31 53
-21 140 23 204 11 14 19 30 19 36 0 11 -64 62 -77 62 -15 -1 -44 -48 -33 -55
17 -10 11 -35 -22 -103 -27 -54 -33 -77 -33 -134 0 -37 -1 -68 -1 -68 -1 0
-20 7 -42 14 -67 24 -179 15 -235 -17 -78 -46 -128 -130 -128 -216 0 -91 22
-142 90 -207 57 -54 74 -77 86 -113 l7 -24 -33 23 c-72 52 -198 32 -248 -39
-23 -32 -37 -106 -27 -144 6 -25 43 -47 84 -50 22 -1 20 -17 -3 -17 -8 0 -21
-10 -29 -22 -13 -21 -13 -29 5 -83 18 -58 56 -105 83 -105 7 0 25 9 40 21 23
18 28 19 41 5 9 -9 33 -21 54 -27 l38 -11 -18 -37 c-41 -85 -44 -201 -8 -346
23 -95 23 -98 5 -143 -40 -104 -31 -144 37 -163 115 -31 307 39 307 113 0 23
0 23 125 23 78 0 124 -4 123 -10 -12 -63 79 -119 217 -132 79 -7 130 13 150
59 11 26 14 28 15 12 0 -38 33 -68 74 -68 47 0 76 28 83 82 7 54 -3 89 -27 97
-18 6 -20 15 -19 113 1 70 6 112 14 122 7 8 16 24 19 36 4 12 25 29 48 40 43
19 68 39 68 54 0 5 -7 6 -17 3 -11 -4 -14 -3 -9 5 10 17 -4 15 -25 -4 -16 -15
-16 -12 2 35 30 81 22 92 -18 24 -21 -35 -41 -63 -45 -63 -4 0 -7 4 -5 9 1 5
-2 8 -8 8 -5 -1 -10 -24 -11 -52 -2 -72 -2 -75 -18 -75 -20 0 -24 -18 -19 -85
5 -61 -2 -74 -11 -20 -2 17 -5 34 -5 39 -1 4 -7 6 -15 3 -10 -4 -12 0 -8 16 2
12 9 27 13 32 4 6 11 31 15 55 4 25 17 59 30 75 12 17 26 46 32 66 13 48 7
144 -12 196 -11 33 -13 50 -4 73 5 17 7 45 4 63 -6 32 -48 87 -67 87 -6 0 -8
3 -5 8 5 9 -91 8 -122 -2 -21 -7 -23 -6 -14 11 5 10 13 36 17 58 10 59 37 104
104 172 47 49 64 74 76 118 38 129 -17 256 -134 311 -47 23 -145 28 -207 12
l-50 -14 -1 61 c0 44 -7 77 -26 118 -14 31 -24 57 -21 57 3 0 33 -16 65 -35
33 -19 64 -35 70 -35 5 0 9 -7 9 -15 0 -18 36 -39 45 -25 3 5 25 9 48 8 34 -2
155 10 177 17 13 4 120 17 157 18 23 1 45 5 48 9 4 3 -2 26 -12 50 l-19 43 23
34 c41 60 36 63 -132 66 -82 1 -165 -1 -183 -5z m-158 -106 c-1 -36 -4 -68 -7
-70 -2 -3 -32 11 -65 31 -33 19 -66 35 -73 35 -7 0 -9 3 -5 7 9 9 128 61 141
62 7 1 10 -25 9 -65z m36 -988 c0 -2 -8 -10 -17 -17 -16 -13 -17 -12 -4 4 13
16 21 21 21 13z m158 -562 c-1 -13 -6 -23 -11 -21 -5 1 -8 6 -8 10 1 4 1 16 1
28 0 11 4 17 10 14 5 -3 9 -17 8 -31z m24 -111 c20 -42 12 -120 -13 -128 -13
-4 -21 -19 -25 -47 l-7 -41 -24 63 c-23 62 -23 64 -7 121 14 51 20 59 40 59
16 0 28 -9 36 -27z"/>
</g>
</svg>
